<?xml version="1.0" encoding="UTF-8" standalone="no"?>
<!-- Created with Inkscape (http://www.inkscape.org/) -->

<svg
   xmlns:dc="http://purl.org/dc/elements/1.1/"
   xmlns:cc="http://creativecommons.org/ns#"
   xmlns:rdf="http://www.w3.org/1999/02/22-rdf-syntax-ns#"
   xmlns:svg="http://www.w3.org/2000/svg"
   xmlns="http://www.w3.org/2000/svg"
   xmlns:sodipodi="http://sodipodi.sourceforge.net/DTD/sodipodi-0.dtd"
   xmlns:inkscape="http://www.inkscape.org/namespaces/inkscape"
   id="svg4155"
   version="1.1"
   inkscape:version="0.91 r13725"
   xml:space="preserve"
   width="637.79401"
   height="398.62177"
   viewBox="0 0 637.79399 398.62177"
   sodipodi:docname="Centrale_Nantes_Logo.svg"
   inkscape:export-filename="/home/gpetit/Documents/Codes/NoisePlanet/assets/img/partners/Centrale_Nantes_Logo.png"
   inkscape:export-xdpi="241"
   inkscape:export-ydpi="241"><metadata
     id="metadata4161"><rdf:RDF><cc:Work
         rdf:about=""><dc:format>image/svg+xml</dc:format><dc:type
           rdf:resource="http://purl.org/dc/dcmitype/StillImage" /><dc:title /></cc:Work></rdf:RDF></metadata><defs
     id="defs4159"><clipPath
       clipPathUnits="userSpaceOnUse"
       id="clipPath4181"><path
         d="m 0,566.93 566.93,0 L 566.93,0 0,0 0,566.93 Z"
         id="path4183"
         inkscape:connector-curvature="0" /></clipPath></defs><sodipodi:namedview
     pagecolor="#ffffff"
     bordercolor="#666666"
     borderopacity="1"
     objecttolerance="10"
     gridtolerance="10"
     guidetolerance="10"
     inkscape:pageopacity="0"
     inkscape:pageshadow="2"
     inkscape:window-width="1366"
     inkscape:window-height="691"
     id="namedview4157"
     showgrid="false"
     fit-margin-top="79.724"
     fit-margin-left="79.724"
     fit-margin-right="79.724"
     fit-margin-bottom="79.724"
     inkscape:zoom="1.2968092"
     inkscape:cx="329.30752"
     inkscape:cy="231.40182"
     inkscape:window-x="0"
     inkscape:window-y="24"
     inkscape:window-maximized="1"
     inkscape:current-layer="g4179"
     inkscape:showpageshadow="true" /><g
     id="g4163"
     inkscape:groupmode="layer"
     inkscape:label="logo ECN"
     transform="matrix(1.25,0,0,-1.25,-35.433875,552.39612)"><g
       id="g4165"
       transform="translate(251.1948,285.8704)"><path
         d="m 0,0 0,42.575 25.348,0 0,-6.914 -17.4,0 0,-10.859 13.943,0 0,-6.797 -13.943,0 0,-11.091 17.4,0 L 25.348,0 0,0 Z"
         style="fill:#122542;fill-opacity:1;fill-rule:nonzero;stroke:none"
         id="path4167"
         inkscape:connector-curvature="0" /></g><g
       id="g4169"
       transform="translate(281.4595,285.8704)"><path
         d="m 0,0 0,42.575 12.837,0 12.578,-35.661 -0.005,0 0,35.661 7.948,0 L 33.358,0 20.42,0 7.942,35.661 l 0.01,0 L 7.952,0 0,0 Z"
         style="fill:#122542;fill-opacity:1;fill-rule:nonzero;stroke:none"
         id="path4171"
         inkscape:connector-curvature="0" /></g><g
       id="g4173"
       transform="translate(319.7344,321.5311)"><path
         d="m 0,0 0,6.914 28.805,0 0,-6.914 -10.371,0 0,-35.661 -7.952,0 L 10.482,0 0,0 Z"
         style="fill:#122542;fill-opacity:1;fill-rule:nonzero;stroke:none"
         id="path4175"
         inkscape:connector-curvature="0" /></g><g
       id="g4177"><g
         id="g4179"
         clip-path="url(#clipPath4181)"><g
           id="g4185"
           transform="translate(372.9854,309.1136)"><path
             d="m 0,0 c 0.92,1.154 1.383,3.519 1.383,5.403 0,1.881 -0.492,4.228 -1.471,5.345 -0.978,1.113 -2.391,1.669 -4.236,1.669 l -7.257,0 0,-14.143 7.374,0 c 1.881,0 3.284,0.575 4.207,1.726 m -11.581,-8.525 0,-14.718 -7.948,0 0,42.575 15.205,0 c 9.22,0 13.828,-5.152 13.828,-13.756 0,-5.107 -1.922,-9.722 -5.76,-12.141 l 5.587,-16.678 -8.698,0 -4.553,14.718 -7.661,0 z"
             style="fill:#122542;fill-opacity:1;fill-rule:nonzero;stroke:none"
             id="path4187"
             inkscape:connector-curvature="0" /></g><g
           id="g4189"
           transform="translate(397.4424,301.3968)"><path
             d="M 0,0 9.604,0 4.803,20.48 0,0 Z m -11.355,-15.526 10.825,42.574 10.665,0 11.062,-42.574 -7.951,0 -2.02,8.615 -12.847,0 -2.021,-8.615 -7.713,0 z"
             style="fill:#122542;fill-opacity:1;fill-rule:nonzero;stroke:none"
             id="path4191"
             inkscape:connector-curvature="0" /></g><g
           id="g4193"
           transform="translate(227.709,307.158)"><path
             d="m 0,0 c 0.06,-2.408 0.203,-8.721 1.189,-10.906 1.153,-2.551 3.943,-3.468 6.518,-3.468 l 10.862,0 0,-6.914 -11.668,0 c -3.264,0 -5.316,0.389 -7.29,1.191 -1.978,0.806 -3.551,2.107 -4.676,3.873 -1.119,1.752 -1.901,3.841 -2.323,6.205 -0.507,2.84 -0.636,7.144 -0.636,10.019 0,2.874 0.129,7.179 0.636,10.018 0.422,2.364 1.204,4.453 2.323,6.205 1.125,1.767 2.698,3.068 4.676,3.873 1.974,0.803 4.026,1.191 7.29,1.191 l 11.668,0 0,-6.914 -10.862,0 C 5.132,14.373 2.342,13.457 1.189,10.905 0.203,8.721 0.06,2.408 0,0"
             style="fill:#122542;fill-opacity:1;fill-rule:nonzero;stroke:none"
             id="path4195"
             inkscape:connector-curvature="0" /></g><g
           id="g4197"
           transform="translate(445.4072,285.8704)"><path
             d="m 0,0 -22.295,0 0,42.575 7.951,0 0,-35.661 L 0,6.914 0,0 Z"
             style="fill:#122542;fill-opacity:1;fill-rule:nonzero;stroke:none"
             id="path4199"
             inkscape:connector-curvature="0" /></g><g
           id="g4201"
           transform="translate(449.4551,285.8704)"><path
             d="m 0,0 0,42.575 25.348,0 0,-6.914 -17.4,0 0,-10.859 13.943,0 0,-6.797 -13.943,0 0,-11.091 17.4,0 L 25.348,0 0,0 Z"
             style="fill:#122542;fill-opacity:1;fill-rule:nonzero;stroke:none"
             id="path4203"
             inkscape:connector-curvature="0" /></g><g
           id="g4205"
           transform="translate(221.3315,236.4915)"><path
             d="m 0,0 0,39.103 6.747,0 16.211,-35.431 0,35.431 4.102,0 L 27.06,0 20.583,0 4.157,35.431 4.157,0 0,0 Z"
             style="fill:#122542;fill-opacity:1;fill-rule:nonzero;stroke:none"
             id="path4207"
             inkscape:connector-curvature="0" /></g><g
           id="g4209"
           transform="translate(289.0098,236.4915)"><path
             d="m 0,0 0,39.103 6.747,0 16.211,-35.431 0,35.431 4.102,0 L 27.06,0 20.583,0 4.156,35.431 4.156,0 0,0 Z"
             style="fill:#122542;fill-opacity:1;fill-rule:nonzero;stroke:none"
             id="path4211"
             inkscape:connector-curvature="0" /></g><g
           id="g4213"
           transform="translate(268.7075,249.8235)"><path
             d="M 0,0 -0.014,0 -7.196,0 -0.007,22.186 7.182,0 0,0 Z m 2.438,25.771 -2.438,0 -0.014,0 -2.438,0 -13.166,-39.103 4.102,0 3.114,9.608 8.388,0 0.014,0 8.388,0 3.113,-9.608 4.102,0 -13.165,39.103 z"
             style="fill:#122542;fill-opacity:1;fill-rule:nonzero;stroke:none"
             id="path4215"
             inkscape:connector-curvature="0" /></g><g
           id="g4217"
           transform="translate(320.5996,271.9222)"><path
             d="m 0,0 0,3.672 26.988,0 0,-3.672 -11.388,0 0,-35.431 -4.103,0 L 11.497,0 0,0 Z"
             style="fill:#122542;fill-opacity:1;fill-rule:nonzero;stroke:none"
             id="path4219"
             inkscape:connector-curvature="0" /></g><g
           id="g4221"
           transform="translate(352.1182,236.4915)"><path
             d="m 0,0 0,39.103 22.724,0 0,-3.672 -18.568,0 0,-13.776 15.329,0 0,-3.614 -15.329,0 0,-14.369 18.568,0 L 22.724,0 0,0 Z"
             style="fill:#122542;fill-opacity:1;fill-rule:nonzero;stroke:none"
             id="path4223"
             inkscape:connector-curvature="0" /></g><g
           id="g4225"
           transform="translate(393.3223,257.6888)"><path
             d="m 0,0 c -1.616,0.447 -3.244,0.869 -4.843,1.379 -1.081,0.345 -2.346,0.962 -3.284,1.96 -1.154,1.228 -1.292,2.779 -1.292,4.5 0,4.066 2.699,6.395 8.097,6.395 l 10.711,0 0,3.671 -10.982,0 c -8.024,0 -12.037,-3.34 -12.037,-10.033 0,-3.237 0.643,-6.634 3.445,-8.614 1.471,-1.04 3.216,-1.627 4.94,-2.095 0.564,-0.153 1.131,-0.3 1.694,-0.456 1.617,-0.447 3.244,-0.869 4.843,-1.379 1.081,-0.345 2.348,-0.962 3.285,-1.96 1.153,-1.228 1.291,-2.778 1.291,-4.5 0,-4.066 -2.699,-6.395 -8.097,-6.395 l -10.709,0 0,-3.67 10.981,0 c 8.023,0 12.036,3.34 12.036,10.032 0,3.237 -0.642,6.634 -3.444,8.614 -1.472,1.04 -3.217,1.627 -4.941,2.095 C 1.13,-0.303 0.564,-0.156 0,0"
             style="fill:#122542;fill-opacity:1;fill-rule:nonzero;stroke:none"
             id="path4227"
             inkscape:connector-curvature="0" /></g><g
           id="g4229"
           transform="translate(134.646,335.618)"><path
             d="m 0,0 0,-106.299 21.26,0 0,85.039 21.26,0 0,-85.039 21.259,0 L 63.779,0 0,0 Z"
             style="fill:#f9ae0c;fill-opacity:1;fill-rule:nonzero;stroke:none"
             id="path4231"
             inkscape:connector-curvature="0" /></g><g
           id="g4233"
           transform="translate(198.4253,356.8777)"><path
             d="m 0,0 0,21.26 -106.299,0 0,-191.339 106.299,0 0,21.26 -85.04,0 L -85.04,0 0,0 Z"
             style="fill:#122542;fill-opacity:1;fill-rule:nonzero;stroke:none"
             id="path4235"
             inkscape:connector-curvature="0" /></g></g></g></g></svg>