<?xml version="1.0" encoding="UTF-8" standalone="no"?>
<!-- Created with Inkscape (http://www.inkscape.org/) -->

<svg
   xmlns:dc="http://purl.org/dc/elements/1.1/"
   xmlns:cc="http://creativecommons.org/ns#"
   xmlns:rdf="http://www.w3.org/1999/02/22-rdf-syntax-ns#"
   xmlns:svg="http://www.w3.org/2000/svg"
   xmlns="http://www.w3.org/2000/svg"
   xmlns:xlink="http://www.w3.org/1999/xlink"
   xmlns:sodipodi="http://sodipodi.sourceforge.net/DTD/sodipodi-0.dtd"
   xmlns:inkscape="http://www.inkscape.org/namespaces/inkscape"
   width="929.34363"
   height="311.0831"
   id="svg2"
   version="1.1"
   inkscape:version="0.91 r13725"
   sodipodi:docname="Logo_noise_planet.svg"
   inkscape:export-filename="/home/gpetit/Documents/Codes/NoisePlanet/assets/img/ressources/Logo_noise_planet.png"
   inkscape:export-xdpi="418"
   inkscape:export-ydpi="418">
  <defs
     id="defs4">
    <linearGradient
       id="linearGradient3820">
      <stop
         style="stop-color:#2790d9;stop-opacity:1;"
         offset="0"
         id="stop3822" />
      <stop
         style="stop-color:#90c6ec;stop-opacity:1;"
         offset="1"
         id="stop3824" />
    </linearGradient>
    <linearGradient
       inkscape:collect="always"
       xlink:href="#linearGradient6452"
       id="linearGradient6578"
       gradientUnits="userSpaceOnUse"
       gradientTransform="matrix(0.99209529,0,0,0.82909929,3.991086,83.66005)"
       x1="137.5"
       y1="483.25504"
       x2="708.21429"
       y2="483.25504" />
    <linearGradient
       id="linearGradient6452">
      <stop
         id="stop6454"
         offset="0"
         style="stop-color:#2880cc;stop-opacity:1;" />
      <stop
         style="stop-color:#b34398;stop-opacity:0.58156025;"
         offset="0.5"
         id="stop6528" />
      <stop
         id="stop6456"
         offset="1"
         style="stop-color:#ff9165;stop-opacity:1;" />
    </linearGradient>
    <linearGradient
       y2="483.25504"
       x2="708.21429"
       y1="483.25504"
       x1="137.5"
       gradientTransform="matrix(0.99209529,0,0,0.82909929,322.94752,205.20834)"
       gradientUnits="userSpaceOnUse"
       id="linearGradient3024"
       xlink:href="#linearGradient6452"
       inkscape:collect="always" />
    <clipPath
       clipPathUnits="userSpaceOnUse"
       id="clipPath6574">
      <rect
         style="opacity:0.72401434;fill:none;stroke:none"
         id="rect6576"
         width="566.203"
         height="128.21428"
         x="140.40419"
         y="420.21933"
         inkscape:export-filename="/home/gwendall/Dropbox/NoiseMap_website/Shield Theme/assets/img/bg/sound/sound.png"
         inkscape:export-xdpi="237.72"
         inkscape:export-ydpi="237.72" />
    </clipPath>
    <linearGradient
       inkscape:collect="always"
       xlink:href="#linearGradient3820"
       id="linearGradient3840"
       gradientUnits="userSpaceOnUse"
       x1="26.592304"
       y1="61.338249"
       x2="54.172405"
       y2="6.7084064" />
    <clipPath
       clipPathUnits="userSpaceOnUse"
       id="clipPath3854">
      <path
         inkscape:connector-curvature="0"
         id="path3856"
         d="m 493.70528,542.6659 -22.90032,3.15866 -157.48532,276.36882 223.7701,-36.0154 22.89351,-188.17349 z"
         style="fill:none;stroke:#000000;stroke-width:0.78172964px;stroke-linecap:butt;stroke-linejoin:miter;stroke-opacity:1" />
    </clipPath>
    <linearGradient
       inkscape:collect="always"
       xlink:href="#linearGradient3820"
       id="linearGradient3040"
       gradientUnits="userSpaceOnUse"
       x1="26.592304"
       y1="61.338249"
       x2="54.172405"
       y2="6.7084064" />
    <linearGradient
       inkscape:collect="always"
       xlink:href="#linearGradient3820"
       id="linearGradient3837"
       gradientUnits="userSpaceOnUse"
       x1="26.592304"
       y1="61.338249"
       x2="54.172405"
       y2="6.7084064" />
  </defs>
  <sodipodi:namedview
     id="base"
     pagecolor="#ffffff"
     bordercolor="#666666"
     borderopacity="1.0"
     inkscape:pageopacity="0.0"
     inkscape:pageshadow="2"
     inkscape:zoom="0.98994949"
     inkscape:cx="515.43754"
     inkscape:cy="-10.36327"
     inkscape:document-units="px"
     inkscape:current-layer="layer1"
     showgrid="false"
     inkscape:window-width="1920"
     inkscape:window-height="1123"
     inkscape:window-x="0"
     inkscape:window-y="24"
     inkscape:window-maximized="1"
     showguides="true"
     inkscape:guide-bbox="true"
     fit-margin-top="0"
     fit-margin-left="0"
     fit-margin-right="0"
     fit-margin-bottom="0" />
  <metadata
     id="metadata7">
    <rdf:RDF>
      <cc:Work
         rdf:about="">
        <dc:format>image/svg+xml</dc:format>
        <dc:type
           rdf:resource="http://purl.org/dc/dcmitype/StillImage" />
        <dc:title></dc:title>
      </cc:Work>
    </rdf:RDF>
  </metadata>
  <g
     inkscape:label="Calque 1"
     inkscape:groupmode="layer"
     id="layer1"
     style="display:inline"
     transform="translate(-48.786359,-341.77789)">
    <path
       style="fill:none;stroke:#2790d9;stroke-width:3;stroke-linecap:round;stroke-linejoin:miter;stroke-miterlimit:4;stroke-dasharray:none;stroke-opacity:1"
       d="m 449.80491,511.24679 c -117.83843,-10.10703 -93.92231,-75.41185 -108.71799,16.88852 -10.27148,67.88982 -28.46386,46.69271 -28.46386,-48.42117 0,-76.4358 -18.03968,-7.22241 -30.0094,-7.22241 -30.39581,0 -12.78408,90.79119 -26.84149,90.79119 -20.5697,0 -1.43584,-154.79831 -20.47792,-154.79831 -17.77328,0 -5.57161,168.50444 -20.16805,168.50444 -18.08652,0 -15.13683,-147.10917 -28.53241,-147.10917 -17.70072,0 -13.36186,111.90931 -29.90432,111.59781 -13.24479,-0.2494 -3.63566,-66.28247 -23.38107,-66.28247 -16.79232,0 -30.94567,120.61424 -45.873428,46.58712 C 72.50721,447.75522 71.293389,504.40377 50.307723,504.40377"
       id="path5649"
       inkscape:connector-curvature="0"
       sodipodi:nodetypes="ccscccsssszc"
       inkscape:export-filename="/home/gpetit/ownCloud/ENERGIC-OD/Noise_Planet/Logo/noise_planet_text.png"
       inkscape:export-xdpi="507.48898"
       inkscape:export-ydpi="507.48898" />
    <path
       style="fill:none;stroke:#2790d9;stroke-width:2;stroke-linecap:round;stroke-linejoin:miter;stroke-miterlimit:4;stroke-dasharray:none;stroke-opacity:1"
       d="m 50.186605,504.63448 c 36.630205,0 27.206223,25.94779 57.851705,25.94779 30.3958,0 29.93356,-117.63985 43.99096,-117.63985 20.56971,0 8.54284,179.09556 27.58492,179.09556 17.77328,0 11.88894,-207.75384 26.48537,-207.75384 18.08653,0 16.9186,147.21431 30.31418,147.21431 10.19888,0 5.93824,-96.95825 16.95499,-96.7508 13.24479,0.24941 6.62288,80.54796 26.36829,80.54796 16.79232,0 6.45375,-93.57966 29.05642,-16.35501 12.32581,42.11255 25.3307,57.78484 36.36862,57.78484 17.38843,0 9.60033,-89.95789 22.16782,-89.95789 12.99969,0 4.70644,35.57788 44.40097,35.57788 1.49386,0.46568 10.91683,0.15578 10.91683,0.15578"
       id="path6508"
       inkscape:connector-curvature="0"
       sodipodi:nodetypes="ccccssssssscc"
       inkscape:export-filename="/home/gpetit/ownCloud/ENERGIC-OD/Noise_Planet/Logo/noise_planet_text.png"
       inkscape:export-xdpi="507.48898"
       inkscape:export-ydpi="507.48898" />
    <path
       inkscape:export-ydpi="507.48898"
       inkscape:export-xdpi="507.48898"
       inkscape:export-filename="/home/gpetit/ownCloud/ENERGIC-OD/Noise_Planet/Logo/noise_planet_text.png"
       sodipodi:nodetypes="ccccssssssscc"
       inkscape:connector-curvature="0"
       id="path6514"
       d="m 50.221631,504.64831 c 36.676389,0 27.776994,-22.67729 53.010939,-22.67729 22.30172,0 30.39613,48.5639 47.21737,48.5639 21.35937,0 37.36565,-103.68243 56.40773,-103.68243 17.77328,0 13.07344,171.20981 27.66987,171.20981 18.08653,0 7.83745,-154.49675 21.23302,-154.49675 3.95989,0 11.53956,44.36128 11.53956,63.18998 0,15.51859 4.16988,17.87356 12.72596,20.36526 13.18966,3.8411 20.98992,48.43921 34.07196,2.68006 12.06139,-42.18905 18.26339,-108.88185 29.3013,-108.88185 10.28144,0 10.80468,120.3402 23.37216,120.3402 12.9997,0 4.14806,-38.92816 44.95935,-38.92816 1.49386,-0.46567 10.91683,-0.15578 10.91683,-0.15578"
       style="fill:none;stroke:#2790d9;stroke-width:1;stroke-linecap:round;stroke-linejoin:miter;stroke-miterlimit:4;stroke-dasharray:none;stroke-opacity:1" />
    <g
       id="g3847"
       clip-path="url(#clipPath3854)"
       inkscape:export-filename="/home/gpetit/ownCloud/ENERGIC-OD/Noise_Planet/Logo/noise_planet_text.png"
       inkscape:export-xdpi="507.48898"
       inkscape:export-ydpi="507.48898"
       transform="translate(0,-162.63456)">
      <circle
         transform="matrix(3.4947718,0,0,3.4947718,297.89029,543.84801)"
         id="circle2990"
         r="32"
         cy="32"
         cx="32"
         style="fill:url(#linearGradient3840);fill-opacity:1" />
      <path
         style="fill:#b5b5b5;fill-opacity:1"
         inkscape:connector-curvature="0"
         d="m 412.17021,536.71872 c -66.69739,0 -120.76893,54.07156 -120.76893,120.76895 0,66.69739 54.07154,120.76893 120.76893,120.76893 66.69739,0 120.76895,-54.07154 120.76895,-120.76893 0,-66.69739 -54.07156,-120.76895 -120.76895,-120.76895 z m -98.51999,70.29851 c 1.15278,4.63314 -1.1528,12.95522 -2.9314,24.91133 -2.07503,13.94333 9.0412,10.92959 8.66792,24.11537 -0.37329,13.18577 9.79875,18.6533 8.47578,19.97079 -1.31749,1.31748 -6.59289,3.20037 1.31748,20.34956 7.91036,17.1437 14.69539,22.23246 15.63958,31.46032 0.94419,9.23333 11.11622,22.79787 11.11622,22.79787 l 0.56543,2.53615 c -32.90405,-19.21873 -55.07064,-54.89497 -55.07064,-95.67095 0,-18.17573 4.43002,-35.32492 12.21963,-50.47044 z m 54.7193,148.68851 c -0.56542,-2.44831 0.56541,-15.63957 16.39163,-20.90949 15.82623,-5.2754 13.18577,-12.24707 17.89576,-19.0266 4.70999,-6.77952 5.65419,-11.86829 -3.39251,-13.94332 -9.04119,-2.07504 -18.46117,-3.57915 -26.56367,-16.39163 -8.1025,-12.81249 -19.40537,-13.18577 -25.43283,-17.14371 -6.02747,-3.95793 -10.9296,-3.20037 -18.27455,-4.14456 -7.34494,-0.94419 -4.89662,-21.47491 -4.52334,-25.99826 0.37877,-4.52335 -4.52334,1.50961 -8.10249,-1.6249 -3.57916,-3.1345 3.3925,-17.78047 10.36417,-17.21506 6.97165,0.56542 5.27539,3.95793 6.59287,11.68165 1.31748,7.72372 3.7658,5.84083 4.33122,3.39251 0.56542,-2.44832 0.9442,-12.81249 3.3925,-16.01286 2.44833,-3.20038 3.01374,-11.86829 10.9296,-11.49501 7.91036,0.37878 7.72372,-7.1583 13.56454,-4.70999 5.84083,2.44831 9.9854,0.56543 6.2196,-2.63496 -3.76579,-3.20037 -1.69624,-6.40624 4.70999,-4.33121 6.40624,2.07503 6.77954,-9.23333 5.65418,-15.07416 -1.13083,-5.84082 -5.84082,-7.53708 -11.68165,-3.95792 -5.84082,3.57914 -10.17204,2.07502 -7.1583,-3.95794 3.01374,-6.02746 14.88203,-0.94419 22.04034,2.07504 7.1583,3.01373 9.04119,-7.91037 5.08876,-13.18578 -3.95793,-5.2754 -4.14458,-2.82708 -15.44745,-2.07503 -4.50138,0.30193 -4.04027,-2.11894 -1.85545,-5.13816 12.15375,-4.6002 25.31756,-7.13635 39.06327,-7.13635 13.91588,0 27.2279,2.60202 39.50791,7.31201 1.54802,2.16286 2.17383,3.8646 1.0979,4.58373 -4.52336,3.01373 -8.4758,0.32388 -7.15832,8.7338 1.31748,8.40991 7.53709,18.40079 12.43371,15.10159 4.89664,-3.29917 13.37791,0.84539 6.02748,5.36873 -7.34495,4.52335 -9.41998,4.14458 -12.81249,7.15831 -3.39251,3.01374 -1.88289,1.50961 1.50962,5.27541 3.39251,3.76578 3.01373,4.52334 -1.69626,6.40624 -4.70999,1.8829 -7.53708,6.02747 -3.01373,10.73746 4.52334,4.70999 7.53707,8.66791 12.62034,0 5.08877,-8.66792 6.02747,-16.19951 10.36418,-13.94333 4.33121,2.26167 9.23333,9.23334 12.43371,5.27541 3.20037,-3.95793 2.63496,-6.59289 6.97166,-3.57915 4.33121,3.01373 20.34957,3.20037 9.60662,11.11623 -10.73746,7.91036 -8.85455,11.30287 -13.94332,10.36417 -5.08876,-0.94419 -28.07329,-5.84082 -33.3487,6.97166 -5.2754,12.81248 -24.49413,22.98453 -14.50874,35.41823 9.9854,12.43372 7.72373,21.47492 22.04033,23.36331 14.31661,1.88289 21.66704,-4.52335 25.2462,2.07503 3.57916,6.59837 0.75206,7.35044 0.9442,17.33034 0.0933,4.95151 2.73376,14.27818 5.36872,22.44655 -20.15743,20.91499 -48.42285,33.96901 -79.69652,33.96901 -15.74387,0 -30.72471,-3.32664 -44.30023,-9.27725 0.40621,-1.5645 0.61481,-2.75023 0.49954,-3.24979 z"
         id="path2996" />
      <path
         style="opacity:0.2;fill:#231f20"
         inkscape:connector-curvature="0"
         d="m 411.17546,579.27177 c 3.33325,-2.00416 3.61805,0.72256 6.51355,-8.50717 2.8955,-9.22973 -10.85944,-10.5008 -17.37827,-9.41433 -6.51356,1.08647 -3.61805,3.80265 -3.61805,3.80265 2.17294,3.43874 3.6075,16.10721 -0.27953,20.81701 -3.88177,4.70453 3.17502,5.61168 6.24985,1.26579 3.08537,-4.34589 4.90494,-5.79627 8.51245,-7.96395 z"
         id="path3000" />
      <path
         style="fill:#ffffff"
         inkscape:connector-curvature="0"
         d="m 411.41284,536.44581 c -64.46232,0 -116.7219,52.25958 -116.7219,116.72189 0,64.46233 52.25958,116.72191 116.7219,116.72191 64.46232,0 116.7219,-52.25958 116.7219,-116.72191 0,-64.46231 -52.25958,-116.72189 -116.7219,-116.72189 z m -95.21853,67.94276 c 1.11415,4.47788 -1.11417,12.52108 -2.83317,24.07654 -2.0055,13.47607 8.73823,10.56333 8.37745,23.30725 -0.36077,12.7439 9.4704,18.02822 8.19175,19.30155 -1.27332,1.27333 -6.37195,3.09312 1.27333,19.66764 7.64529,16.56919 14.20294,21.48744 15.11549,30.40606 0.91256,8.92391 10.74372,22.0339 10.74372,22.0339 l 0.54647,2.45116 c -31.80141,-18.5747 -53.22519,-53.05541 -53.22519,-92.46497 0,-17.56664 4.28157,-34.14115 11.81015,-48.77913 z m 52.88562,143.70587 c -0.54647,-2.36627 0.54646,-15.11548 15.84234,-20.2088 15.29588,-5.09863 12.74391,-11.83666 17.29607,-18.38901 4.55215,-6.55234 5.46471,-11.47058 -3.27883,-13.47607 -8.73822,-2.0055 -17.84253,-3.45922 -25.67352,-15.84235 -7.83097,-12.38312 -18.75507,-12.7439 -24.58055,-16.5692 -5.82549,-3.82529 -10.56334,-3.09313 -17.66215,-4.00568 -7.09882,-0.91255 -4.73255,-20.75528 -4.37177,-25.12705 0.36608,-4.37176 -4.37176,1.45903 -7.83098,-1.57043 -3.45921,-3.02947 3.27883,-17.18464 10.01687,-16.63818 6.73803,0.54647 5.09862,3.8253 6.37195,11.29019 1.27332,7.4649 3.6396,5.6451 4.18607,3.27882 0.54647,-2.36627 0.91255,-12.38313 3.27883,-15.47625 2.36627,-3.09314 2.91274,-11.47058 10.56333,-11.1045 7.64528,0.36608 7.46489,-6.91842 13.10998,-4.55216 5.6451,2.36627 9.65079,0.54648 6.01118,-2.54666 -3.6396,-3.09312 -1.6394,-6.19157 4.55216,-4.18606 6.19156,2.00549 6.55234,-8.92393 5.4647,-14.56902 -1.09294,-5.6451 -5.64509,-7.28451 -11.29019,-3.82529 -5.64509,3.4592 -9.83117,2.00549 -6.91842,-3.8253 2.91275,-5.82548 14.38332,-0.91256 21.30175,2.00549 6.91842,2.91275 8.73822,-7.64528 4.91823,-12.74391 -3.82529,-5.09862 -4.00568,-2.73235 -14.92979,-2.00549 -4.35054,0.29181 -3.90488,-2.04793 -1.79327,-4.96599 11.74646,-4.44604 24.46915,-6.8972 37.75422,-6.8972 13.44955,0 26.31549,2.51483 38.18398,7.06698 1.49616,2.09039 2.10099,3.7351 1.06111,4.43013 -4.37177,2.91274 -8.19175,0.31303 -6.91842,8.44111 1.27332,8.12809 7.2845,17.78417 12.01704,14.59554 4.73254,-3.18862 12.92961,0.81706 5.82549,5.18882 -7.09881,4.37177 -9.10431,4.00569 -12.38314,6.91843 -3.27882,2.91274 -1.81979,1.45902 1.45903,5.09862 3.27882,3.63961 2.91274,4.37177 -1.63942,6.19157 -4.55215,1.8198 -7.2845,5.82548 -2.91273,10.37764 4.37176,4.55215 7.2845,8.37744 12.19743,0 4.91824,-8.37745 5.82549,-15.65665 10.01687,-13.47607 4.18607,2.18588 8.92391,8.92391 12.01704,5.09862 3.09314,-3.8253 2.54666,-6.37196 6.73804,-3.45921 4.18607,2.91274 19.66764,3.09312 9.28469,10.74371 -10.37764,7.64529 -8.55783,10.92411 -13.47607,10.01686 -4.91823,-0.91255 -27.13253,-5.6451 -32.23116,6.73805 -5.09862,12.38313 -23.67332,22.21429 -14.02255,34.23135 9.65078,12.01705 7.4649,20.75527 21.30175,22.58037 13.83685,1.81981 20.94098,-4.37177 24.40018,2.0055 3.45922,6.37195 0.72687,7.10411 0.91256,16.74959 0.0902,4.7856 2.64216,13.79971 5.18882,21.69435 -19.48194,20.21412 -46.80017,32.83069 -77.02584,32.83069 -15.21629,0 -29.69511,-3.21516 -42.81571,-8.96636 0.3926,-1.51738 0.59422,-2.66338 0.4828,-3.14619 z"
         id="path3006" />
      <path
         style="fill:#ffffff"
         inkscape:connector-curvature="0"
         d="m 411.17546,569.63593 c 3.33325,-2.00417 3.61805,0.72256 6.51355,-8.50717 2.8955,-9.22973 -10.85944,-10.5008 -17.37827,-9.41433 -6.51356,1.08647 -3.61805,3.80265 -3.61805,3.80265 2.17294,3.43874 3.6075,16.1072 -0.27953,20.817 -3.88177,4.70453 3.17502,5.61169 6.24985,1.26579 3.07481,-4.34588 4.90494,-5.79627 8.51245,-7.96394 z"
         id="path3010" />
    </g>
    <path
       style="fill:#b5b5b5;fill-opacity:1;stroke:none"
       d="M 317.21489,652.861 487.94428,345.65896 c 0,0 2.89206,-5.9203 7.71327,-3.13677 5.0387,2.9091 2.39296,7.58941 2.39296,7.58941 z"
       id="path3932"
       inkscape:connector-curvature="0"
       sodipodi:nodetypes="ccscc"
       inkscape:export-filename="/home/gpetit/ownCloud/ENERGIC-OD/Noise_Planet/Logo/noise_planet_text.png"
       inkscape:export-xdpi="507.48898"
       inkscape:export-ydpi="507.48898" />
    <g
       id="g3885"
       transform="translate(-25.714282,-93.648198)"
       inkscape:export-filename="/home/gpetit/ownCloud/ENERGIC-OD/Noise_Planet/Logo/noise_planet_text.png"
       inkscape:export-xdpi="507.48898"
       inkscape:export-ydpi="507.48898">
      <g
         transform="matrix(1.7168445,0,0,1.7168445,-436.6783,101.62471)"
         style="font-style:normal;font-weight:normal;font-size:40px;line-height:125%;font-family:Sans;letter-spacing:0px;word-spacing:0px;fill:#2288d4;fill-opacity:1;stroke:none"
         id="flowRoot3858">
        <path
           d="m 607.875,288.88685 0,-29.45313 24.04297,22.36329 0,-22.07032 3.10547,0 0,29.49219 -24.04297,-22.36328 0,22.03125 -3.10547,0 z"
           style="font-style:normal;font-variant:normal;font-weight:bold;font-stretch:normal;font-family:Sawasdee;-inkscape-font-specification:'Sawasdee Bold';fill:#2288d4;fill-opacity:1"
           id="path4184"
           inkscape:connector-curvature="0" />
        <path
           d="m 659.47656,273.84779 q 1.42578,2.34375 1.42578,5.11718 0,2.77344 -1.42578,5.11719 -1.42578,2.34375 -3.86719,3.71094 -2.4414,1.34766 -5.3125,1.34766 -2.89062,0 -5.35156,-1.34766 -2.4414,-1.36719 -3.86719,-3.71094 -1.42578,-2.34375 -1.42578,-5.11719 0,-2.77343 1.42578,-5.11718 1.42579,-2.36328 3.86719,-3.71094 2.46094,-1.36719 5.35156,-1.36719 2.8711,0 5.3125,1.36719 2.44141,1.34766 3.86719,3.71094 z m -16.69922,5.11718 q 0,3.02735 2.20703,5.13672 2.20704,2.10938 5.35157,2.10938 3.14453,0 5.37109,-2.10938 2.22656,-2.1289 2.22656,-5.13672 0,-2.98828 -2.22656,-5.09765 -2.22656,-2.12891 -5.37109,-2.12891 -3.14453,0 -5.35157,2.12891 -2.20703,2.10937 -2.20703,5.09765 z"
           style="font-style:normal;font-variant:normal;font-weight:bold;font-stretch:normal;font-family:Sawasdee;-inkscape-font-specification:'Sawasdee Bold';fill:#2288d4;fill-opacity:1"
           id="path4186"
           inkscape:connector-curvature="0" />
        <path
           d="m 667.15234,262.61732 q 0.91797,0 1.5625,0.625 0.66407,0.625 0.66407,1.52344 0,0.8789 -0.66407,1.48437 -0.64453,0.60547 -1.5625,0.60547 -0.95703,0 -1.60156,-0.60547 -0.64453,-0.60547 -0.64453,-1.48437 0,-0.89844 0.64453,-1.52344 0.66406,-0.625 1.60156,-0.625 z m 1.50391,26.26953 -3.08594,0 0,-19.80469 3.08594,0 0,19.80469 z"
           style="font-style:normal;font-variant:normal;font-weight:bold;font-stretch:normal;font-family:Sawasdee;-inkscape-font-specification:'Sawasdee Bold';fill:#2288d4;fill-opacity:1"
           id="path4188"
           inkscape:connector-curvature="0" />
        <path
           d="m 686.15625,273.35951 -2.89063,1.01562 -0.21484,-0.66406 q -0.37109,-1.01563 -1.15234,-1.52344 -0.76172,-0.52734 -1.64063,-0.52734 -1.03515,0 -1.69922,0.60547 -0.66406,0.60546 -0.66406,1.5625 0,0.625 0.50781,1.15234 0.50782,0.50781 1.32813,0.89844 0.82031,0.37109 1.79687,0.76172 0.9961,0.39062 1.97266,0.91796 0.99609,0.52735 1.81641,1.19141 0.82031,0.66406 1.32812,1.71875 0.50781,1.05469 0.50781,2.38281 0,2.77344 -2.07031,4.57032 -2.07031,1.79687 -4.90234,1.79687 -1.6211,0 -3.02735,-0.625 -1.40625,-0.64453 -2.46093,-2.07031 -1.05469,-1.44531 -1.34766,-3.47656 l -0.0977,-0.66407 3.06641,-0.37109 0.0977,0.625 q 0.2539,1.83594 1.30859,2.73437 1.05469,0.89844 2.5,0.89844 1.54297,0 2.71484,-0.9375 1.17188,-0.95703 1.17188,-2.48047 0,-0.85937 -0.52735,-1.5039 -0.50781,-0.66407 -1.32812,-1.09375 -0.82031,-0.44922 -1.81641,-0.83985 -0.97656,-0.41015 -1.97265,-0.8789 -0.9961,-0.46875 -1.81641,-1.03516 -0.82031,-0.58594 -1.34766,-1.52344 -0.50781,-0.9375 -0.50781,-2.14843 0,-2.32422 1.60156,-3.71094 1.6211,-1.38672 3.86719,-1.38672 1.03516,0 2.05078,0.33203 1.01563,0.33203 2.05078,1.28906 1.05469,0.95703 1.58204,2.40235 l 0.21484,0.60547 z"
           style="font-style:normal;font-variant:normal;font-weight:bold;font-stretch:normal;font-family:Sawasdee;-inkscape-font-specification:'Sawasdee Bold';fill:#2288d4;fill-opacity:1"
           id="path4190"
           inkscape:connector-curvature="0" />
        <path
           d="m 694.39844,276.73841 12.40234,0 q -0.625,-2.22656 -2.36328,-3.61328 -1.71875,-1.38672 -3.82813,-1.38672 -2.07031,0 -3.80859,1.38672 -1.71875,1.38672 -2.40234,3.61328 z m -0.35157,2.89063 q 0.23438,2.8125 2.12891,4.6875 1.89453,1.85547 4.35547,1.85547 1.93359,0 3.59375,-0.97657 1.66016,-0.99609 2.79297,-2.91015 l 2.65625,1.42578 q -0.76172,1.34765 -1.77735,2.38281 -1.01562,1.01563 -1.97265,1.58203 -0.95703,0.56641 -2.01172,0.91797 -1.05469,0.35156 -1.81641,0.44922 -0.74218,0.0977 -1.46484,0.0977 -2.65625,0 -4.86328,-1.38672 -2.20703,-1.38672 -3.45703,-3.71094 -1.23047,-2.34375 -1.23047,-5.07813 0,-2.71484 1.26953,-5.03906 1.26953,-2.34375 3.49609,-3.75 2.22657,-1.40625 4.86328,-1.40625 2.51954,0 4.64844,1.26953 2.12891,1.26953 3.41797,3.41797 1.28906,2.12891 1.50391,4.66797 l 0.0781,1.50391 -16.21094,0 z"
           style="font-style:normal;font-variant:normal;font-weight:bold;font-stretch:normal;font-family:Sawasdee;-inkscape-font-specification:'Sawasdee Bold';fill:#2288d4;fill-opacity:1"
           id="path4192"
           inkscape:connector-curvature="0" />
        <path
           d="m 727.71875,275.62513 0,3.16406 -13.4375,0 0,-3.16406 13.4375,0 z"
           style="font-style:normal;font-variant:normal;font-weight:bold;font-stretch:normal;font-family:Sawasdee;-inkscape-font-specification:'Sawasdee Bold';fill:#2288d4;fill-opacity:1"
           id="path4194"
           inkscape:connector-curvature="0" />
        <path
           d="m 732.5625,288.88685 0,-29.16016 10.83984,0 q 3.35938,0 5.70313,2.38282 2.34375,2.36328 2.34375,5.70312 0,3.32031 -2.32422,5.68359 -2.32422,2.36329 -5.625,2.36329 l -7.83203,0 0,13.02734 -3.10547,0 z m 3.10547,-16.09375 7.83203,0 q 1.97266,0 3.39844,-1.44531 1.44531,-1.46485 1.44531,-3.53516 0,-2.10937 -1.44531,-3.59375 -1.44532,-1.48437 -3.4961,-1.48437 l -7.73437,0 0,10.05859 z"
           style="font-style:normal;font-variant:normal;font-weight:bold;font-stretch:normal;font-family:Sawasdee;-inkscape-font-specification:'Sawasdee Bold';fill:#2288d4;fill-opacity:1"
           id="path4196"
           inkscape:connector-curvature="0" />
        <path
           d="m 759.18359,288.88685 -3.10547,0 0,-29.16016 3.10547,0 0,29.16016 z"
           style="font-style:normal;font-variant:normal;font-weight:bold;font-stretch:normal;font-family:Sawasdee;-inkscape-font-specification:'Sawasdee Bold';fill:#2288d4;fill-opacity:1"
           id="path4198"
           inkscape:connector-curvature="0" />
        <path
           d="m 781.37109,288.88685 -3.39843,0 q -0.56641,-1.28906 -0.56641,-2.71484 -3.04688,3.04687 -6.67969,3.04687 -1.71875,0 -3.0664,-0.52734 -1.34766,-0.52735 -2.14844,-1.38672 -0.78125,-0.85938 -1.19141,-1.83594 -0.39062,-0.99609 -0.39062,-2.01172 0,-1.05469 0.33203,-1.91406 0.33203,-0.87891 0.83984,-1.50391 0.50781,-0.64453 1.34766,-1.13281 0.83984,-0.50781 1.60156,-0.82031 0.78125,-0.3125 1.89453,-0.54688 1.13281,-0.23437 1.9336,-0.33203 0.82031,-0.11719 2.01171,-0.17578 1.19141,-0.0586 1.81641,-0.0586 0.625,-0.0195 1.64063,-0.0195 -0.27344,-2.44141 -1.79688,-3.86719 -1.50391,-1.42578 -3.39844,-1.42578 -0.46875,0 -0.89843,0.0781 -0.42969,0.0781 -0.80079,0.23438 -0.37109,0.15625 -0.68359,0.3125 -0.3125,0.15625 -0.625,0.41015 -0.29297,0.25391 -0.50781,0.42969 -0.19531,0.15625 -0.42969,0.44922 -0.23437,0.27344 -0.33203,0.41016 -0.0977,0.11718 -0.27344,0.35156 -0.17578,0.23437 -0.17578,0.2539 l -2.53906,-1.5625 q 0.35156,-0.52734 0.58594,-0.83984 0.2539,-0.3125 0.97656,-1.05469 0.74219,-0.74218 1.44531,-1.1914 0.72266,-0.44922 1.875,-0.82032 1.15234,-0.39062 2.38281,-0.39062 1.58203,0 3.06641,0.60547 1.50391,0.60547 2.67578,1.69922 1.17188,1.09375 1.875,2.8125 0.72266,1.71875 0.72266,3.76953 l 0,6.54297 q 0,1.32812 0.2539,2.67578 0.25391,1.32812 0.625,2.05078 z m -10.64453,-2.61719 q 1.91406,0 3.78906,-1.23047 1.875,-1.23047 2.89063,-2.91015 l 0,-2.63672 q -1.64063,0.0195 -2.94922,0.11719 -1.28906,0.0976 -2.75391,0.35156 -1.46484,0.2539 -2.4414,0.66406 -0.97656,0.41016 -1.6211,1.13281 -0.64453,0.72266 -0.64453,1.69922 0,1.01563 0.9375,1.91406 0.9375,0.89844 2.79297,0.89844 z"
           style="font-style:normal;font-variant:normal;font-weight:bold;font-stretch:normal;font-family:Sawasdee;-inkscape-font-specification:'Sawasdee Bold';fill:#2288d4;fill-opacity:1"
           id="path4200"
           inkscape:connector-curvature="0" />
        <path
           d="m 788.61719,269.0431 q 0.33203,1.07422 0.41015,1.71875 0.0977,0.64453 0.0977,2.10937 1.11328,-1.67968 2.75391,-2.89062 1.64062,-1.21094 3.16406,-1.21094 1.64062,0 2.92969,0.66406 1.28906,0.64454 2.07031,1.77735 0.78125,1.13281 1.17187,2.55859 0.39063,1.40625 0.39063,3.00781 l 0,12.10938 -3.10547,0 0,-12.10938 q 0,-0.89843 -0.17578,-1.71875 -0.15625,-0.82031 -0.52735,-1.60156 -0.37109,-0.80078 -1.09375,-1.26953 -0.72265,-0.48828 -1.73828,-0.48828 -1.26953,0 -2.67578,1.32812 -1.40625,1.3086 -2.28515,3.02735 -0.87891,1.69922 -0.87891,2.91015 l 0,9.92188 -3.08594,0 0,-13.98438 q 0,-1.5039 -0.2539,-3.33984 -0.23438,-1.85547 -0.625,-2.51953 l 3.45703,0 z"
           style="font-style:normal;font-variant:normal;font-weight:bold;font-stretch:normal;font-family:Sawasdee;-inkscape-font-specification:'Sawasdee Bold';fill:#2288d4;fill-opacity:1"
           id="path4202"
           inkscape:connector-curvature="0" />
        <path
           d="m 809.71094,276.73841 12.40234,0 q -0.625,-2.22656 -2.36328,-3.61328 -1.71875,-1.38672 -3.82813,-1.38672 -2.07031,0 -3.80859,1.38672 -1.71875,1.38672 -2.40234,3.61328 z m -0.35157,2.89063 q 0.23438,2.8125 2.12891,4.6875 1.89453,1.85547 4.35547,1.85547 1.93359,0 3.59375,-0.97657 1.66016,-0.99609 2.79297,-2.91015 l 2.65625,1.42578 q -0.76172,1.34765 -1.77735,2.38281 -1.01562,1.01563 -1.97265,1.58203 -0.95703,0.56641 -2.01172,0.91797 -1.05469,0.35156 -1.81641,0.44922 -0.74218,0.0977 -1.46484,0.0977 -2.65625,0 -4.86328,-1.38672 -2.20703,-1.38672 -3.45703,-3.71094 -1.23047,-2.34375 -1.23047,-5.07813 0,-2.71484 1.26953,-5.03906 1.26953,-2.34375 3.49609,-3.75 2.22657,-1.40625 4.86328,-1.40625 2.51954,0 4.64844,1.26953 2.12891,1.26953 3.41797,3.41797 1.28906,2.12891 1.50391,4.66797 l 0.0781,1.50391 -16.21094,0 z"
           style="font-style:normal;font-variant:normal;font-weight:bold;font-stretch:normal;font-family:Sawasdee;-inkscape-font-specification:'Sawasdee Bold';fill:#2288d4;fill-opacity:1"
           id="path4204"
           inkscape:connector-curvature="0" />
        <path
           d="m 833.40234,288.84779 -3.10547,0 0,-16.85547 -1.69921,0 0,-2.91016 1.69921,0 0,-4.375 3.10547,0 0,4.375 5.64453,0 -1.03515,2.91016 -4.60938,0 0,16.85547 z"
           style="font-style:normal;font-variant:normal;font-weight:bold;font-stretch:normal;font-family:Sawasdee;-inkscape-font-specification:'Sawasdee Bold';fill:#2288d4;fill-opacity:1"
           id="path4206"
           inkscape:connector-curvature="0" />
      </g>
      <g
         transform="matrix(0.89838469,0,0,0.89838469,61.67732,394.3476)"
         style="font-style:normal;font-weight:normal;font-size:40px;line-height:125%;font-family:Sans;letter-spacing:0px;word-spacing:0px;fill:#2288d4;fill-opacity:1;stroke:none"
         id="flowRoot3877">
        <path
           d="m 609.50586,260.57428 q 0,-1.02539 0.57617,-2.00195 0.57617,-0.97656 1.63086,-1.62109 1.06445,-0.6543 2.31445,-0.6543 1.25977,0 2.19727,0.74219 0.9375,0.74219 1.12305,2.08984 l 0.0391,0.3125 -1.54297,0.49805 -0.0488,-0.32227 q -0.12695,-0.8789 -0.71289,-1.33789 -0.58594,-0.45898 -1.38672,-0.45898 -0.5957,0 -1.11328,0.24414 -0.50781,0.23437 -0.83008,0.5957 -0.32226,0.36133 -0.50781,0.77149 -0.17578,0.41015 -0.17578,0.77148 0,0.45898 0.3125,0.83984 0.3125,0.3711 0.81055,0.64454 0.50781,0.27343 1.11328,0.5371 0.60547,0.26368 1.20117,0.58594 0.60547,0.3125 1.10351,0.69336 0.50782,0.38086 0.82032,0.97656 0.3125,0.58594 0.3125,1.32813 0,1.36719 -0.83008,2.61719 -0.83008,1.25 -2.20703,2.01172 -1.36719,0.75195 -2.8711,0.75195 -0.79101,0 -1.48437,-0.23438 -0.68359,-0.23437 -1.23047,-0.69336 -0.53711,-0.46875 -0.84961,-1.23046 -0.3125,-0.77149 -0.3125,-1.76758 l 0.0488,-0.81055 1.60156,-0.18555 -0.0488,0.66407 q 0,1.37695 0.72266,2.06054 0.72266,0.67383 1.85547,0.67383 1.06445,0 2.00195,-0.50781 0.9375,-0.51758 1.47461,-1.32813 0.54688,-0.82031 0.54688,-1.68945 0,-0.55664 -0.3125,-1.00586 -0.3125,-0.44922 -0.81055,-0.74219 -0.49805,-0.30273 -1.10352,-0.57617 -0.60547,-0.27344 -1.21093,-0.5664 -0.59571,-0.29297 -1.09375,-0.625 -0.49805,-0.3418 -0.81055,-0.86915 -0.3125,-0.52734 -0.3125,-1.18164 z"
           style="font-style:italic;font-variant:normal;font-weight:bold;font-stretch:normal;font-size:20px;font-family:Sawasdee;-inkscape-font-specification:'Sawasdee Bold';fill:#2288d4;fill-opacity:1"
           id="path4209"
           inkscape:connector-curvature="0" />
        <path
           d="m 624.19336,262.47858 q -1.01563,0 -1.96289,0.61524 -0.94727,0.60546 -1.54297,1.63085 -0.58594,1.0254 -0.58594,2.14844 0,1.22071 0.72266,2.01172 0.73242,0.78125 1.82617,0.78125 1.82617,0 3.32031,-1.94336 l 1.19141,0.71289 q -2.17774,2.71485 -4.80469,2.71485 -1.72851,0 -2.77344,-1.12305 -1.03515,-1.12305 -1.03515,-2.8418 0,-1.18164 0.50781,-2.32422 0.51758,-1.15234 1.33789,-2.00195 0.83008,-0.84961 1.91406,-1.36719 1.09375,-0.52734 2.20703,-0.52734 0.76172,0 1.38672,0.24414 0.63477,0.23437 0.9961,0.54687 0.37109,0.30274 0.66406,0.75196 0.30273,0.43945 0.40039,0.67383 0.10742,0.22461 0.19531,0.49804 l -1.48437,0.75196 q -0.66406,-1.95313 -2.48047,-1.95313 z"
           style="font-style:italic;font-variant:normal;font-weight:bold;font-stretch:normal;font-size:20px;font-family:Sawasdee;-inkscape-font-specification:'Sawasdee Bold';fill:#2288d4;fill-opacity:1"
           id="path4211"
           inkscape:connector-curvature="0" />
        <path
           d="m 631.08789,259.1778 q 0,-0.52734 0.41992,-0.9082 0.42969,-0.38086 0.9375,-0.38086 0.40039,0 0.6543,0.24414 0.26367,0.24414 0.26367,0.60547 0,0.45898 -0.40039,0.86914 -0.39062,0.40039 -0.95703,0.40039 -0.39063,0 -0.6543,-0.23438 -0.26367,-0.23437 -0.26367,-0.5957 z m -0.66406,11.8457 -1.54297,0 2.12891,-9.90234 1.52343,0 -2.10937,9.90234 z"
           style="font-style:italic;font-variant:normal;font-weight:bold;font-stretch:normal;font-size:20px;font-family:Sawasdee;-inkscape-font-specification:'Sawasdee Bold';fill:#2288d4;fill-opacity:1"
           id="path4213"
           inkscape:connector-curvature="0" />
        <path
           d="m 635.74609,264.94928 6.18164,0 q -0.0977,-1.12304 -0.82031,-1.80664 -0.71289,-0.69336 -1.75781,-0.69336 -1.04492,0 -2.05078,0.69336 -1.00586,0.69336 -1.55274,1.80664 z m -2.08007,2.23633 q 0,-1.57226 0.85937,-3.01758 0.86914,-1.45507 2.25586,-2.32421 1.39648,-0.87891 2.87109,-0.87891 1.71875,0 2.78321,1.15234 1.06445,1.14258 1.06445,2.85157 0,0.50781 -0.15625,1.42578 l -8.10547,0 q -0.0391,0.33203 -0.0391,0.51757 0,1.20118 0.73242,1.98243 0.73242,0.77148 1.83594,0.77148 0.96679,0 1.90429,-0.48828 0.9375,-0.49805 1.70899,-1.45508 l 1.18164,0.71289 q -0.52734,0.67383 -1.15234,1.19141 -0.61524,0.50781 -1.15235,0.79101 -0.53711,0.28321 -1.10351,0.45899 -0.55664,0.17578 -0.94727,0.22461 -0.38086,0.0488 -0.73242,0.0488 -1.72852,0 -2.77344,-1.12305 -1.03515,-1.12305 -1.03515,-2.8418 z"
           style="font-style:italic;font-variant:normal;font-weight:bold;font-stretch:normal;font-size:20px;font-family:Sawasdee;-inkscape-font-specification:'Sawasdee Bold';fill:#2288d4;fill-opacity:1"
           id="path4215"
           inkscape:connector-curvature="0" />
        <path
           d="m 648.08008,261.10163 q 0.0586,0.26367 0.0586,0.67383 0,0.35156 -0.18555,1.24023 0.73243,-0.83984 1.66993,-1.44531 0.94726,-0.60547 1.70898,-0.60547 1.30859,0 1.93359,0.77148 0.63477,0.77149 0.63477,2.03125 0,0.60547 -0.12695,1.20118 l -1.28907,6.05468 -1.55273,0 1.29883,-6.05468 q 0.0977,-0.50782 0.0977,-0.9375 0,-0.70313 -0.3125,-1.15235 -0.30273,-0.44922 -1.01562,-0.44922 -0.63477,0 -1.48438,0.66407 -0.83984,0.65429 -1.46484,1.51367 -0.61523,0.84961 -0.74219,1.45508 l -1.06445,4.96093 -1.54297,0 1.50391,-6.99218 q 0.24414,-1.13282 0.24414,-2.29493 0,-0.43945 -0.0586,-0.63476 l 1.68946,0 z"
           style="font-style:italic;font-variant:normal;font-weight:bold;font-stretch:normal;font-size:20px;font-family:Sawasdee;-inkscape-font-specification:'Sawasdee Bold';fill:#2288d4;fill-opacity:1"
           id="path4217"
           inkscape:connector-curvature="0" />
        <path
           d="m 656.82031,271.00397 -1.55273,0 1.79687,-8.42773 -0.85937,0 0.3125,-1.45508 0.8789,0 0.45899,-2.1875 1.52344,0 -0.45899,2.1875 2.82227,0 -0.83985,1.45508 -2.29492,0 -1.78711,8.42773 z"
           style="font-style:italic;font-variant:normal;font-weight:bold;font-stretch:normal;font-size:20px;font-family:Sawasdee;-inkscape-font-specification:'Sawasdee Bold';fill:#2288d4;fill-opacity:1"
           id="path4219"
           inkscape:connector-curvature="0" />
        <path
           d="m 663.1582,259.1778 q 0,-0.52734 0.41992,-0.9082 0.42969,-0.38086 0.9375,-0.38086 0.4004,0 0.6543,0.24414 0.26367,0.24414 0.26367,0.60547 0,0.45898 -0.40039,0.86914 -0.39062,0.40039 -0.95703,0.40039 -0.39062,0 -0.6543,-0.23438 -0.26367,-0.23437 -0.26367,-0.5957 z m -0.66406,11.8457 -1.54297,0 2.12891,-9.90234 1.52344,0 -2.10938,9.90234 z"
           style="font-style:italic;font-variant:normal;font-weight:bold;font-stretch:normal;font-size:20px;font-family:Sawasdee;-inkscape-font-specification:'Sawasdee Bold';fill:#2288d4;fill-opacity:1"
           id="path4221"
           inkscape:connector-curvature="0" />
        <path
           d="m 667.02539,262.6153 -0.83008,0 0.32227,-1.49414 0.83984,0 0.10742,-0.50781 q 0.35157,-1.65039 1.71875,-2.83203 1.37696,-1.19141 2.99805,-1.19141 l 0.35156,0 -0.2539,1.21094 -0.33203,0 q -0.91797,0 -1.81641,0.84961 -0.89844,0.83984 -1.14258,1.96289 l -0.10742,0.50781 2.82226,0 -0.83984,1.49414 -2.29492,0 -1.78711,8.4082 -1.55273,0 1.79687,-8.4082 z"
           style="font-style:italic;font-variant:normal;font-weight:bold;font-stretch:normal;font-size:20px;font-family:Sawasdee;-inkscape-font-specification:'Sawasdee Bold';fill:#2288d4;fill-opacity:1"
           id="path4223"
           inkscape:connector-curvature="0" />
        <path
           d="m 679.63281,271.00397 -1.55273,0 1.79687,-8.42773 -0.85937,0 0.3125,-1.45508 0.8789,0 0.45899,-2.1875 1.52344,0 -0.45899,2.1875 2.82227,0 -0.83985,1.45508 -2.29492,0 -1.78711,8.42773 z"
           style="font-style:italic;font-variant:normal;font-weight:bold;font-stretch:normal;font-size:20px;font-family:Sawasdee;-inkscape-font-specification:'Sawasdee Bold';fill:#2288d4;fill-opacity:1"
           id="path4225"
           inkscape:connector-curvature="0" />
        <path
           d="m 695.13086,265.01764 q 0,1.14258 -0.53711,2.26563 -0.52734,1.12305 -1.40625,1.97265 -0.87891,0.83985 -2.08984,1.36719 -1.20118,0.52735 -2.46094,0.52735 -1.91406,0 -3.13477,-1.15235 -1.21093,-1.16211 -1.21093,-2.93945 0,-1.11328 0.5371,-2.2168 0.53711,-1.11328 1.40625,-1.96289 0.87891,-0.84961 2.08985,-1.37695 1.21094,-0.53711 2.4707,-0.53711 1.91406,0 3.125,1.15234 1.21094,1.14258 1.21094,2.90039 z m -4.60938,-2.56836 q -1.13281,0 -2.20703,0.58594 -1.07422,0.58594 -1.76758,1.60156 -0.68359,1.01563 -0.68359,2.16797 0,1.25 0.85938,2.07032 0.86914,0.81054 2.23632,0.81054 1.15235,0 2.22657,-0.58594 1.08398,-0.5957 1.75781,-1.61132 0.68359,-1.02539 0.68359,-2.17774 0,-1.23047 -0.86914,-2.04101 -0.86914,-0.82032 -2.23633,-0.82032 z"
           style="font-style:italic;font-variant:normal;font-weight:bold;font-stretch:normal;font-size:20px;font-family:Sawasdee;-inkscape-font-specification:'Sawasdee Bold';fill:#2288d4;fill-opacity:1"
           id="path4227"
           inkscape:connector-curvature="0" />
        <path
           d="m 707.66992,265.01764 q 0,1.14258 -0.53711,2.26563 -0.52734,1.12305 -1.40625,1.97265 -0.8789,0.83985 -2.08984,1.36719 -1.20117,0.52735 -2.46094,0.52735 -1.91406,0 -3.13476,-1.15235 -1.21094,-1.16211 -1.21094,-2.93945 0,-1.11328 0.53711,-2.2168 0.53711,-1.11328 1.40625,-1.96289 0.8789,-0.84961 2.08984,-1.37695 1.21094,-0.53711 2.4707,-0.53711 1.91407,0 3.125,1.15234 1.21094,1.14258 1.21094,2.90039 z m -4.60937,-2.56836 q -1.13282,0 -2.20703,0.58594 -1.07422,0.58594 -1.76758,1.60156 -0.6836,1.01563 -0.6836,2.16797 0,1.25 0.85938,2.07032 0.86914,0.81054 2.23633,0.81054 1.15234,0 2.22656,-0.58594 1.08398,-0.5957 1.75781,-1.61132 0.6836,-1.02539 0.6836,-2.17774 0,-1.23047 -0.86915,-2.04101 -0.86914,-0.82032 -2.23632,-0.82032 z"
           style="font-style:italic;font-variant:normal;font-weight:bold;font-stretch:normal;font-size:20px;font-family:Sawasdee;-inkscape-font-specification:'Sawasdee Bold';fill:#2288d4;fill-opacity:1"
           id="path4229"
           inkscape:connector-curvature="0" />
        <path
           d="m 710.41406,271.0235 -1.55273,0 3.10547,-14.58008 1.5332,0 -3.08594,14.58008 z"
           style="font-style:italic;font-variant:normal;font-weight:bold;font-stretch:normal;font-size:20px;font-family:Sawasdee;-inkscape-font-specification:'Sawasdee Bold';fill:#2288d4;fill-opacity:1"
           id="path4231"
           inkscape:connector-curvature="0" />
        <path
           d="m 715.01367,264.03132 q 0,-1.21094 0.97656,-2.14844 0.97657,-0.9375 2.34375,-0.9375 0.39063,0 0.76172,0.10742 0.3711,0.0977 0.72266,0.3125 0.36133,0.21484 0.61523,0.625 0.25391,0.41016 0.33203,0.9668 l 0.0488,0.30273 -1.5625,0.50781 -0.0391,-0.33203 q -0.0781,-0.50781 -0.40039,-0.76172 -0.3125,-0.26367 -0.75195,-0.26367 -0.63477,0 -1.02539,0.41016 -0.39063,0.40039 -0.39063,0.83984 0,0.30274 0.27344,0.55664 0.2832,0.25391 0.69336,0.43946 0.41015,0.17578 0.89844,0.42968 0.48828,0.24414 0.89843,0.51758 0.41016,0.26367 0.6836,0.72266 0.2832,0.45898 0.2832,1.04492 0,1.49414 -1.2793,2.65625 -1.27929,1.16211 -2.95898,1.16211 -1.18164,0 -1.98242,-0.71289 -0.79102,-0.71289 -0.79102,-2.06055 l 0.0684,-0.64453 1.5625,-0.18555 q -0.0195,0.33203 -0.0195,0.55664 0,0.81055 0.41992,1.19141 0.41992,0.38086 1.06445,0.38086 1.00586,0 1.66993,-0.64453 0.66406,-0.64453 0.66406,-1.32813 0,-0.39062 -0.2832,-0.70312 -0.27344,-0.3125 -0.69336,-0.50781 -0.41993,-0.19532 -0.91797,-0.42969 -0.48828,-0.23438 -0.90821,-0.46875 -0.41992,-0.24414 -0.70312,-0.6543 -0.27344,-0.41016 -0.27344,-0.94726 z"
           style="font-style:italic;font-variant:normal;font-weight:bold;font-stretch:normal;font-size:20px;font-family:Sawasdee;-inkscape-font-specification:'Sawasdee Bold';fill:#2288d4;fill-opacity:1"
           id="path4233"
           inkscape:connector-curvature="0" />
        <path
           d="m 730.9707,262.6153 -0.83008,0 0.32227,-1.49414 0.83984,0 0.10743,-0.50781 q 0.35156,-1.65039 1.71875,-2.83203 1.37695,-1.19141 2.99804,-1.19141 l 0.35157,0 -0.25391,1.21094 -0.33203,0 q -0.91797,0 -1.81641,0.84961 -0.89844,0.83984 -1.14258,1.96289 l -0.10742,0.50781 2.82227,0 -0.83985,1.49414 -2.29492,0 -1.78711,8.4082 -1.55273,0 1.79687,-8.4082 z"
           style="font-style:italic;font-variant:normal;font-weight:bold;font-stretch:normal;font-size:20px;font-family:Sawasdee;-inkscape-font-specification:'Sawasdee Bold';fill:#2288d4;fill-opacity:1"
           id="path4235"
           inkscape:connector-curvature="0" />
        <path
           d="m 746.22461,265.01764 q 0,1.14258 -0.53711,2.26563 -0.52734,1.12305 -1.40625,1.97265 -0.87891,0.83985 -2.08984,1.36719 -1.20118,0.52735 -2.46094,0.52735 -1.91406,0 -3.13477,-1.15235 -1.21093,-1.16211 -1.21093,-2.93945 0,-1.11328 0.5371,-2.2168 0.53711,-1.11328 1.40625,-1.96289 0.87891,-0.84961 2.08985,-1.37695 1.21094,-0.53711 2.4707,-0.53711 1.91406,0 3.125,1.15234 1.21094,1.14258 1.21094,2.90039 z m -4.60938,-2.56836 q -1.13281,0 -2.20703,0.58594 -1.07422,0.58594 -1.76758,1.60156 -0.68359,1.01563 -0.68359,2.16797 0,1.25 0.85938,2.07032 0.86914,0.81054 2.23632,0.81054 1.15235,0 2.22657,-0.58594 1.08398,-0.5957 1.75781,-1.61132 0.68359,-1.02539 0.68359,-2.17774 0,-1.23047 -0.86914,-2.04101 -0.86914,-0.82032 -2.23633,-0.82032 z"
           style="font-style:italic;font-variant:normal;font-weight:bold;font-stretch:normal;font-size:20px;font-family:Sawasdee;-inkscape-font-specification:'Sawasdee Bold';fill:#2288d4;fill-opacity:1"
           id="path4237"
           inkscape:connector-curvature="0" />
        <path
           d="m 750.73633,262.57624 q 1.27929,-1.17188 2.73437,-1.65039 l 1.66016,1.35742 q -1.14258,0 -2.07031,0.32226 -0.91797,0.32227 -1.43555,0.75196 -0.51758,0.42968 -0.89844,1.00586 -0.37109,0.5664 -0.49804,0.91797 -0.11719,0.34179 -0.18555,0.65429 l -1.10352,5.08789 -1.52343,0 1.48437,-6.99218 q 0.24414,-1.09375 0.24414,-2.22657 0,-0.46875 -0.0586,-0.70312 l 1.72851,0 q 0.0391,0.39062 0.0391,0.61523 0,0.42969 -0.11719,0.85938 z"
           style="font-style:italic;font-variant:normal;font-weight:bold;font-stretch:normal;font-size:20px;font-family:Sawasdee;-inkscape-font-specification:'Sawasdee Bold';fill:#2288d4;fill-opacity:1"
           id="path4239"
           inkscape:connector-curvature="0" />
        <path
           d="m 764.33984,264.94928 6.18164,0 q -0.0977,-1.12304 -0.82031,-1.80664 -0.71289,-0.69336 -1.75781,-0.69336 -1.04492,0 -2.05078,0.69336 -1.00586,0.69336 -1.55274,1.80664 z m -2.08007,2.23633 q 0,-1.57226 0.85937,-3.01758 0.86914,-1.45507 2.25586,-2.32421 1.39648,-0.87891 2.87109,-0.87891 1.71875,0 2.78321,1.15234 1.06445,1.14258 1.06445,2.85157 0,0.50781 -0.15625,1.42578 l -8.10547,0 q -0.0391,0.33203 -0.0391,0.51757 0,1.20118 0.73242,1.98243 0.73242,0.77148 1.83594,0.77148 0.96679,0 1.90429,-0.48828 0.9375,-0.49805 1.70899,-1.45508 l 1.18164,0.71289 q -0.52734,0.67383 -1.15234,1.19141 -0.61524,0.50781 -1.15235,0.79101 -0.53711,0.28321 -1.10351,0.45899 -0.55664,0.17578 -0.94727,0.22461 -0.38086,0.0488 -0.73242,0.0488 -1.72852,0 -2.77344,-1.12305 -1.03515,-1.12305 -1.03515,-2.8418 z"
           style="font-style:italic;font-variant:normal;font-weight:bold;font-stretch:normal;font-size:20px;font-family:Sawasdee;-inkscape-font-specification:'Sawasdee Bold';fill:#2288d4;fill-opacity:1"
           id="path4241"
           inkscape:connector-curvature="0" />
        <path
           d="m 776.67383,261.10163 q 0.0586,0.26367 0.0586,0.67383 0,0.35156 -0.18555,1.24023 0.73243,-0.83984 1.66993,-1.44531 0.94726,-0.60547 1.70898,-0.60547 1.30859,0 1.93359,0.77148 0.63477,0.77149 0.63477,2.03125 0,0.60547 -0.12695,1.20118 l -1.28907,6.05468 -1.55273,0 1.29883,-6.05468 q 0.0977,-0.50782 0.0977,-0.9375 0,-0.70313 -0.3125,-1.15235 -0.30273,-0.44922 -1.01562,-0.44922 -0.63477,0 -1.48438,0.66407 -0.83984,0.65429 -1.46484,1.51367 -0.61523,0.84961 -0.74219,1.45508 l -1.06445,4.96093 -1.54297,0 1.50391,-6.99218 q 0.24414,-1.13282 0.24414,-2.29493 0,-0.43945 -0.0586,-0.63476 l 1.68946,0 z"
           style="font-style:italic;font-variant:normal;font-weight:bold;font-stretch:normal;font-size:20px;font-family:Sawasdee;-inkscape-font-specification:'Sawasdee Bold';fill:#2288d4;fill-opacity:1"
           id="path4243"
           inkscape:connector-curvature="0" />
        <path
           d="m 783.62695,261.10163 1.66992,0 1.72852,6.26953 4.3457,-6.26953 1.67969,0 -6.81641,10.06836 -2.60742,-10.06836 z"
           style="font-style:italic;font-variant:normal;font-weight:bold;font-stretch:normal;font-size:20px;font-family:Sawasdee;-inkscape-font-specification:'Sawasdee Bold';fill:#2288d4;fill-opacity:1"
           id="path4245"
           inkscape:connector-curvature="0" />
        <path
           d="m 794.7207,259.1778 q 0,-0.52734 0.41992,-0.9082 0.42969,-0.38086 0.9375,-0.38086 0.4004,0 0.6543,0.24414 0.26367,0.24414 0.26367,0.60547 0,0.45898 -0.40039,0.86914 -0.39062,0.40039 -0.95703,0.40039 -0.39062,0 -0.6543,-0.23438 -0.26367,-0.23437 -0.26367,-0.5957 z m -0.66406,11.8457 -1.54297,0 2.12891,-9.90234 1.52344,0 -2.10938,9.90234 z"
           style="font-style:italic;font-variant:normal;font-weight:bold;font-stretch:normal;font-size:20px;font-family:Sawasdee;-inkscape-font-specification:'Sawasdee Bold';fill:#2288d4;fill-opacity:1"
           id="path4247"
           inkscape:connector-curvature="0" />
        <path
           d="m 800.11133,262.57624 q 1.27929,-1.17188 2.73437,-1.65039 l 1.66016,1.35742 q -1.14258,0 -2.07031,0.32226 -0.91797,0.32227 -1.43555,0.75196 -0.51758,0.42968 -0.89844,1.00586 -0.37109,0.5664 -0.49804,0.91797 -0.11719,0.34179 -0.18555,0.65429 l -1.10352,5.08789 -1.52343,0 1.48437,-6.99218 q 0.24414,-1.09375 0.24414,-2.22657 0,-0.46875 -0.0586,-0.70312 l 1.72851,0 q 0.0391,0.39062 0.0391,0.61523 0,0.42969 -0.11719,0.85938 z"
           style="font-style:italic;font-variant:normal;font-weight:bold;font-stretch:normal;font-size:20px;font-family:Sawasdee;-inkscape-font-specification:'Sawasdee Bold';fill:#2288d4;fill-opacity:1"
           id="path4249"
           inkscape:connector-curvature="0" />
        <path
           d="m 815.32617,265.01764 q 0,1.14258 -0.53711,2.26563 -0.52734,1.12305 -1.40625,1.97265 -0.8789,0.83985 -2.08984,1.36719 -1.20117,0.52735 -2.46094,0.52735 -1.91406,0 -3.13476,-1.15235 -1.21094,-1.16211 -1.21094,-2.93945 0,-1.11328 0.53711,-2.2168 0.53711,-1.11328 1.40625,-1.96289 0.8789,-0.84961 2.08984,-1.37695 1.21094,-0.53711 2.4707,-0.53711 1.91407,0 3.125,1.15234 1.21094,1.14258 1.21094,2.90039 z m -4.60937,-2.56836 q -1.13282,0 -2.20703,0.58594 -1.07422,0.58594 -1.76758,1.60156 -0.6836,1.01563 -0.6836,2.16797 0,1.25 0.85938,2.07032 0.86914,0.81054 2.23633,0.81054 1.15234,0 2.22656,-0.58594 1.08398,-0.5957 1.75781,-1.61132 0.6836,-1.02539 0.6836,-2.17774 0,-1.23047 -0.86915,-2.04101 -0.86914,-0.82032 -2.23632,-0.82032 z"
           style="font-style:italic;font-variant:normal;font-weight:bold;font-stretch:normal;font-size:20px;font-family:Sawasdee;-inkscape-font-specification:'Sawasdee Bold';fill:#2288d4;fill-opacity:1"
           id="path4251"
           inkscape:connector-curvature="0" />
        <path
           d="m 819.87695,261.10163 q 0.0586,0.26367 0.0586,0.67383 0,0.35156 -0.18555,1.24023 0.73242,-0.83984 1.66992,-1.44531 0.94727,-0.60547 1.70899,-0.60547 1.30859,0 1.93359,0.77148 0.63477,0.77149 0.63477,2.03125 0,0.60547 -0.12696,1.20118 l -1.28906,6.05468 -1.55273,0 1.29882,-6.05468 q 0.0977,-0.50782 0.0977,-0.9375 0,-0.70313 -0.3125,-1.15235 -0.30273,-0.44922 -1.01563,-0.44922 -0.63476,0 -1.48437,0.66407 -0.83984,0.65429 -1.46484,1.51367 -0.61524,0.84961 -0.74219,1.45508 l -1.06445,4.96093 -1.54297,0 1.5039,-6.99218 q 0.24414,-1.13282 0.24414,-2.29493 0,-0.43945 -0.0586,-0.63476 l 1.68945,0 z"
           style="font-style:italic;font-variant:normal;font-weight:bold;font-stretch:normal;font-size:20px;font-family:Sawasdee;-inkscape-font-specification:'Sawasdee Bold';fill:#2288d4;fill-opacity:1"
           id="path4253"
           inkscape:connector-curvature="0" />
        <path
           d="m 830.29687,263.03522 q 0.66407,-0.86914 1.54297,-1.45508 0.87891,-0.58593 1.63086,-0.58593 1.03516,0 1.5918,0.55664 0.55664,0.54687 0.68359,1.48437 0.72266,-0.88867 1.5918,-1.46484 0.86914,-0.57617 1.60156,-0.57617 1.20117,0 1.76758,0.75195 0.56641,0.74219 0.56641,1.95312 0,0.49805 -0.14649,1.31836 l -1.29883,6.00586 -1.52343,0 1.26953,-6.00586 q 0.12695,-0.61523 0.12695,-1.06445 0,-0.64453 -0.26367,-1.05469 -0.25391,-0.41992 -0.83008,-0.41992 -0.52734,0 -1.2793,0.63477 -0.75195,0.625 -1.33789,1.48437 -0.58593,0.84961 -0.72265,1.48438 l -1.05469,4.9414 -1.5332,0 1.26953,-6.05468 q 0.12695,-0.61524 0.12695,-1.05469 0,-1.48438 -1.08398,-1.48438 -0.49805,0 -1.24024,0.61524 -0.73242,0.60547 -1.33789,1.47461 -0.5957,0.86914 -0.74219,1.54297 l -1.05468,4.96093 -1.55274,0 1.50391,-6.99218 q 0.24414,-1.05469 0.24414,-2.2754 0,-0.41992 -0.0586,-0.65429 l 1.70898,0 q 0.0391,0.26367 0.0391,0.65429 0,0.50782 -0.20508,1.2793 z"
           style="font-style:italic;font-variant:normal;font-weight:bold;font-stretch:normal;font-size:20px;font-family:Sawasdee;-inkscape-font-specification:'Sawasdee Bold';fill:#2288d4;fill-opacity:1"
           id="path4255"
           inkscape:connector-curvature="0" />
        <path
           d="m 845.19922,264.94928 6.18164,0 q -0.0977,-1.12304 -0.82031,-1.80664 -0.71289,-0.69336 -1.75782,-0.69336 -1.04492,0 -2.05078,0.69336 -1.00586,0.69336 -1.55273,1.80664 z m -2.08008,2.23633 q 0,-1.57226 0.85938,-3.01758 0.86914,-1.45507 2.25585,-2.32421 1.39649,-0.87891 2.8711,-0.87891 1.71875,0 2.7832,1.15234 1.06445,1.14258 1.06445,2.85157 0,0.50781 -0.15625,1.42578 l -8.10546,0 q -0.0391,0.33203 -0.0391,0.51757 0,1.20118 0.73243,1.98243 0.73242,0.77148 1.83593,0.77148 0.9668,0 1.9043,-0.48828 0.9375,-0.49805 1.70898,-1.45508 l 1.18164,0.71289 q -0.52734,0.67383 -1.15234,1.19141 -0.61523,0.50781 -1.15234,0.79101 -0.53711,0.28321 -1.10352,0.45899 -0.55664,0.17578 -0.94726,0.22461 -0.38086,0.0488 -0.73243,0.0488 -1.72851,0 -2.77343,-1.12305 -1.03516,-1.12305 -1.03516,-2.8418 z"
           style="font-style:italic;font-variant:normal;font-weight:bold;font-stretch:normal;font-size:20px;font-family:Sawasdee;-inkscape-font-specification:'Sawasdee Bold';fill:#2288d4;fill-opacity:1"
           id="path4257"
           inkscape:connector-curvature="0" />
        <path
           d="m 857.5332,261.10163 q 0.0586,0.26367 0.0586,0.67383 0,0.35156 -0.18555,1.24023 0.73242,-0.83984 1.66992,-1.44531 0.94727,-0.60547 1.70899,-0.60547 1.30859,0 1.93359,0.77148 0.63477,0.77149 0.63477,2.03125 0,0.60547 -0.12696,1.20118 l -1.28906,6.05468 -1.55273,0 1.29882,-6.05468 q 0.0977,-0.50782 0.0977,-0.9375 0,-0.70313 -0.3125,-1.15235 -0.30273,-0.44922 -1.01563,-0.44922 -0.63476,0 -1.48437,0.66407 -0.83984,0.65429 -1.46484,1.51367 -0.61524,0.84961 -0.74219,1.45508 l -1.06445,4.96093 -1.54297,0 1.5039,-6.99218 q 0.24414,-1.13282 0.24414,-2.29493 0,-0.43945 -0.0586,-0.63476 l 1.68945,0 z"
           style="font-style:italic;font-variant:normal;font-weight:bold;font-stretch:normal;font-size:20px;font-family:Sawasdee;-inkscape-font-specification:'Sawasdee Bold';fill:#2288d4;fill-opacity:1"
           id="path4259"
           inkscape:connector-curvature="0" />
        <path
           d="m 866.27344,271.00397 -1.55274,0 1.79688,-8.42773 -0.85938,0 0.3125,-1.45508 0.87891,0 0.45898,-2.1875 1.52344,0 -0.45898,2.1875 2.82226,0 -0.83984,1.45508 -2.29492,0 -1.78711,8.42773 z"
           style="font-style:italic;font-variant:normal;font-weight:bold;font-stretch:normal;font-size:20px;font-family:Sawasdee;-inkscape-font-specification:'Sawasdee Bold';fill:#2288d4;fill-opacity:1"
           id="path4261"
           inkscape:connector-curvature="0" />
        <path
           d="m 878.14844,271.0235 -1.69922,0 q -0.0977,-0.48828 -0.0977,-0.67383 0,-0.24414 0.0977,-0.68359 -1.83594,1.52344 -3.65235,1.52344 -1.44531,0 -2.14843,-0.6836 -0.70313,-0.69335 -0.70313,-1.66992 0,-0.35156 0.0586,-0.52734 0.10742,-0.52734 0.36132,-0.95703 0.26368,-0.43946 0.57618,-0.75196 0.32226,-0.32226 0.79101,-0.5664 0.47852,-0.25391 0.89844,-0.41016 0.41992,-0.15625 1.00586,-0.27344 0.5957,-0.11718 1.00586,-0.16601 0.41992,-0.0586 1.02539,-0.0879 0.60547,-0.0293 0.91797,-0.0293 0.3125,-0.01 0.82031,-0.01 0.0293,-0.12696 0.0293,-0.3711 0,-1.05469 -0.60547,-1.66015 -0.59571,-0.61524 -1.45508,-0.61524 -0.23438,0 -0.45898,0.0391 -0.22461,0.0391 -0.42969,0.11719 -0.20508,0.0781 -0.38086,0.15625 -0.16602,0.0781 -0.35156,0.20508 -0.17579,0.12695 -0.30274,0.21484 -0.11719,0.0781 -0.26367,0.22461 -0.14648,0.13672 -0.21484,0.19532 -0.0586,0.0586 -0.17579,0.18554 l -0.11718,0.12696 -1.06446,-0.78125 q 1.88477,-2.14844 4.0625,-2.14844 1.41602,0 2.36329,0.91797 0.95703,0.9082 0.95703,2.4707 0,0.46875 -0.10743,1.05469 l -0.66406,3.27148 q -0.18554,0.77149 -0.18554,1.48438 0,0.53711 0.10742,0.8789 z m -0.98633,-4.69726 q -0.55664,0.01 -1.05469,0.0391 -0.48828,0.0195 -1.1914,0.0977 -0.70313,0.0781 -1.25977,0.23437 -0.54688,0.15625 -1.05469,0.39063 -0.50781,0.23437 -0.79101,0.61523 -0.28321,0.37109 -0.28321,0.85938 0,0.45898 0.38086,0.81054 0.39063,0.3418 1.19141,0.3418 0.9668,0 2.03125,-0.61524 1.06445,-0.61523 1.75781,-1.45507 l 0.27344,-1.31836 z"
           style="font-style:italic;font-variant:normal;font-weight:bold;font-stretch:normal;font-size:20px;font-family:Sawasdee;-inkscape-font-specification:'Sawasdee Bold';fill:#2288d4;fill-opacity:1"
           id="path4263"
           inkscape:connector-curvature="0" />
        <path
           d="m 882.05469,271.0235 -1.55274,0 3.10547,-14.58008 1.5332,0 -3.08593,14.58008 z"
           style="font-style:italic;font-variant:normal;font-weight:bold;font-stretch:normal;font-size:20px;font-family:Sawasdee;-inkscape-font-specification:'Sawasdee Bold';fill:#2288d4;fill-opacity:1"
           id="path4265"
           inkscape:connector-curvature="0" />
        <path
           d="m 895.30664,261.10163 q 0.0586,0.26367 0.0586,0.67383 0,0.35156 -0.18554,1.24023 0.73242,-0.83984 1.66992,-1.44531 0.94726,-0.60547 1.70898,-0.60547 1.3086,0 1.9336,0.77148 0.63476,0.77149 0.63476,2.03125 0,0.60547 -0.12695,1.20118 l -1.28906,6.05468 -1.55274,0 1.29883,-6.05468 q 0.0977,-0.50782 0.0977,-0.9375 0,-0.70313 -0.3125,-1.15235 -0.30274,-0.44922 -1.01563,-0.44922 -0.63476,0 -1.48437,0.66407 -0.83985,0.65429 -1.46485,1.51367 -0.61523,0.84961 -0.74218,1.45508 l -1.06446,4.96093 -1.54297,0 1.50391,-6.99218 q 0.24414,-1.13282 0.24414,-2.29493 0,-0.43945 -0.0586,-0.63476 l 1.68945,0 z"
           style="font-style:italic;font-variant:normal;font-weight:bold;font-stretch:normal;font-size:20px;font-family:Sawasdee;-inkscape-font-specification:'Sawasdee Bold';fill:#2288d4;fill-opacity:1"
           id="path4267"
           inkscape:connector-curvature="0" />
        <path
           d="m 913.8418,265.01764 q 0,1.14258 -0.53711,2.26563 -0.52735,1.12305 -1.40625,1.97265 -0.87891,0.83985 -2.08985,1.36719 -1.20117,0.52735 -2.46093,0.52735 -1.91407,0 -3.13477,-1.15235 -1.21094,-1.16211 -1.21094,-2.93945 0,-1.11328 0.53711,-2.2168 0.53711,-1.11328 1.40625,-1.96289 0.87891,-0.84961 2.08985,-1.37695 1.21093,-0.53711 2.4707,-0.53711 1.91406,0 3.125,1.15234 1.21094,1.14258 1.21094,2.90039 z m -4.60938,-2.56836 q -1.13281,0 -2.20703,0.58594 -1.07422,0.58594 -1.76758,1.60156 -0.68359,1.01563 -0.68359,2.16797 0,1.25 0.85937,2.07032 0.86914,0.81054 2.23633,0.81054 1.15235,0 2.22656,-0.58594 1.08399,-0.5957 1.75782,-1.61132 0.68359,-1.02539 0.68359,-2.17774 0,-1.23047 -0.86914,-2.04101 -0.86914,-0.82032 -2.23633,-0.82032 z"
           style="font-style:italic;font-variant:normal;font-weight:bold;font-stretch:normal;font-size:20px;font-family:Sawasdee;-inkscape-font-specification:'Sawasdee Bold';fill:#2288d4;fill-opacity:1"
           id="path4269"
           inkscape:connector-curvature="0" />
        <path
           d="m 917.2207,259.1778 q 0,-0.52734 0.41992,-0.9082 0.42969,-0.38086 0.9375,-0.38086 0.4004,0 0.6543,0.24414 0.26367,0.24414 0.26367,0.60547 0,0.45898 -0.40039,0.86914 -0.39062,0.40039 -0.95703,0.40039 -0.39062,0 -0.6543,-0.23438 -0.26367,-0.23437 -0.26367,-0.5957 z m -0.66406,11.8457 -1.54297,0 2.12891,-9.90234 1.52344,0 -2.10938,9.90234 z"
           style="font-style:italic;font-variant:normal;font-weight:bold;font-stretch:normal;font-size:20px;font-family:Sawasdee;-inkscape-font-specification:'Sawasdee Bold';fill:#2288d4;fill-opacity:1"
           id="path4271"
           inkscape:connector-curvature="0" />
        <path
           d="m 921.14648,264.03132 q 0,-1.21094 0.97657,-2.14844 0.97656,-0.9375 2.34375,-0.9375 0.39062,0 0.76172,0.10742 0.37109,0.0977 0.72265,0.3125 0.36133,0.21484 0.61524,0.625 0.2539,0.41016 0.33203,0.9668 l 0.0488,0.30273 -1.5625,0.50781 -0.0391,-0.33203 q -0.0781,-0.50781 -0.40039,-0.76172 -0.3125,-0.26367 -0.75195,-0.26367 -0.63477,0 -1.02539,0.41016 -0.39063,0.40039 -0.39063,0.83984 0,0.30274 0.27344,0.55664 0.2832,0.25391 0.69336,0.43946 0.41016,0.17578 0.89844,0.42968 0.48828,0.24414 0.89844,0.51758 0.41015,0.26367 0.68359,0.72266 0.2832,0.45898 0.2832,1.04492 0,1.49414 -1.27929,2.65625 -1.2793,1.16211 -2.95899,1.16211 -1.18164,0 -1.98242,-0.71289 -0.79102,-0.71289 -0.79102,-2.06055 l 0.0684,-0.64453 1.5625,-0.18555 q -0.0195,0.33203 -0.0195,0.55664 0,0.81055 0.41992,1.19141 0.41993,0.38086 1.06446,0.38086 1.00586,0 1.66992,-0.64453 0.66406,-0.64453 0.66406,-1.32813 0,-0.39062 -0.2832,-0.70312 -0.27344,-0.3125 -0.69336,-0.50781 -0.41992,-0.19532 -0.91797,-0.42969 -0.48828,-0.23438 -0.9082,-0.46875 -0.41993,-0.24414 -0.70313,-0.6543 -0.27344,-0.41016 -0.27344,-0.94726 z"
           style="font-style:italic;font-variant:normal;font-weight:bold;font-stretch:normal;font-size:20px;font-family:Sawasdee;-inkscape-font-specification:'Sawasdee Bold';fill:#2288d4;fill-opacity:1"
           id="path4273"
           inkscape:connector-curvature="0" />
        <path
           d="m 930.74609,264.94928 6.18164,0 q -0.0977,-1.12304 -0.82031,-1.80664 -0.71289,-0.69336 -1.75781,-0.69336 -1.04492,0 -2.05078,0.69336 -1.00586,0.69336 -1.55274,1.80664 z m -2.08007,2.23633 q 0,-1.57226 0.85937,-3.01758 0.86914,-1.45507 2.25586,-2.32421 1.39648,-0.87891 2.87109,-0.87891 1.71875,0 2.78321,1.15234 1.06445,1.14258 1.06445,2.85157 0,0.50781 -0.15625,1.42578 l -8.10547,0 q -0.0391,0.33203 -0.0391,0.51757 0,1.20118 0.73242,1.98243 0.73242,0.77148 1.83594,0.77148 0.96679,0 1.90429,-0.48828 0.9375,-0.49805 1.70899,-1.45508 l 1.18164,0.71289 q -0.52734,0.67383 -1.15234,1.19141 -0.61524,0.50781 -1.15235,0.79101 -0.53711,0.28321 -1.10351,0.45899 -0.55664,0.17578 -0.94727,0.22461 -0.38086,0.0488 -0.73242,0.0488 -1.72852,0 -2.77344,-1.12305 -1.03515,-1.12305 -1.03515,-2.8418 z"
           style="font-style:italic;font-variant:normal;font-weight:bold;font-stretch:normal;font-size:20px;font-family:Sawasdee;-inkscape-font-specification:'Sawasdee Bold';fill:#2288d4;fill-opacity:1"
           id="path4275"
           inkscape:connector-curvature="0" />
        <path
           d="m 955.21875,271.0235 -1.69922,0 q -0.0977,-0.48828 -0.0977,-0.67383 0,-0.24414 0.0977,-0.68359 -1.83594,1.52344 -3.65234,1.52344 -1.44532,0 -2.14844,-0.6836 -0.70313,-0.69335 -0.70313,-1.66992 0,-0.35156 0.0586,-0.52734 0.10742,-0.52734 0.36133,-0.95703 0.26367,-0.43946 0.57617,-0.75196 0.32226,-0.32226 0.79101,-0.5664 0.47852,-0.25391 0.89844,-0.41016 0.41992,-0.15625 1.00586,-0.27344 0.5957,-0.11718 1.00586,-0.16601 0.41992,-0.0586 1.02539,-0.0879 0.60547,-0.0293 0.91797,-0.0293 0.3125,-0.01 0.82031,-0.01 0.0293,-0.12696 0.0293,-0.3711 0,-1.05469 -0.60547,-1.66015 -0.5957,-0.61524 -1.45508,-0.61524 -0.23437,0 -0.45898,0.0391 -0.22461,0.0391 -0.42969,0.11719 -0.20508,0.0781 -0.38086,0.15625 -0.16601,0.0781 -0.35156,0.20508 -0.17578,0.12695 -0.30274,0.21484 -0.11718,0.0781 -0.26367,0.22461 -0.14648,0.13672 -0.21484,0.19532 -0.0586,0.0586 -0.17578,0.18554 l -0.11719,0.12696 -1.06445,-0.78125 q 1.88476,-2.14844 4.0625,-2.14844 1.41601,0 2.36328,0.91797 0.95703,0.9082 0.95703,2.4707 0,0.46875 -0.10742,1.05469 l -0.66407,3.27148 q -0.18554,0.77149 -0.18554,1.48438 0,0.53711 0.10742,0.8789 z m -0.98633,-4.69726 q -0.55664,0.01 -1.05469,0.0391 -0.48828,0.0195 -1.1914,0.0977 -0.70313,0.0781 -1.25977,0.23437 -0.54687,0.15625 -1.05469,0.39063 -0.50781,0.23437 -0.79101,0.61523 -0.2832,0.37109 -0.2832,0.85938 0,0.45898 0.38086,0.81054 0.39062,0.3418 1.1914,0.3418 0.9668,0 2.03125,-0.61524 1.06445,-0.61523 1.75781,-1.45507 l 0.27344,-1.31836 z"
           style="font-style:italic;font-variant:normal;font-weight:bold;font-stretch:normal;font-size:20px;font-family:Sawasdee;-inkscape-font-specification:'Sawasdee Bold';fill:#2288d4;fill-opacity:1"
           id="path4277"
           inkscape:connector-curvature="0" />
        <path
           d="m 959.42773,264.03132 q 0,-1.21094 0.97657,-2.14844 0.97656,-0.9375 2.34375,-0.9375 0.39062,0 0.76172,0.10742 0.37109,0.0977 0.72265,0.3125 0.36133,0.21484 0.61524,0.625 0.2539,0.41016 0.33203,0.9668 l 0.0488,0.30273 -1.5625,0.50781 -0.0391,-0.33203 q -0.0781,-0.50781 -0.40039,-0.76172 -0.3125,-0.26367 -0.75195,-0.26367 -0.63477,0 -1.02539,0.41016 -0.39063,0.40039 -0.39063,0.83984 0,0.30274 0.27344,0.55664 0.2832,0.25391 0.69336,0.43946 0.41016,0.17578 0.89844,0.42968 0.48828,0.24414 0.89844,0.51758 0.41015,0.26367 0.68359,0.72266 0.2832,0.45898 0.2832,1.04492 0,1.49414 -1.27929,2.65625 -1.2793,1.16211 -2.95899,1.16211 -1.18164,0 -1.98242,-0.71289 -0.79102,-0.71289 -0.79102,-2.06055 l 0.0684,-0.64453 1.5625,-0.18555 q -0.0195,0.33203 -0.0195,0.55664 0,0.81055 0.41992,1.19141 0.41993,0.38086 1.06446,0.38086 1.00586,0 1.66992,-0.64453 0.66406,-0.64453 0.66406,-1.32813 0,-0.39062 -0.2832,-0.70312 -0.27344,-0.3125 -0.69336,-0.50781 -0.41992,-0.19532 -0.91797,-0.42969 -0.48828,-0.23438 -0.9082,-0.46875 -0.41993,-0.24414 -0.70313,-0.6543 -0.27344,-0.41016 -0.27344,-0.94726 z"
           style="font-style:italic;font-variant:normal;font-weight:bold;font-stretch:normal;font-size:20px;font-family:Sawasdee;-inkscape-font-specification:'Sawasdee Bold';fill:#2288d4;fill-opacity:1"
           id="path4279"
           inkscape:connector-curvature="0" />
        <path
           d="m 968.29492,264.03132 q 0,-1.21094 0.97656,-2.14844 0.97657,-0.9375 2.34375,-0.9375 0.39063,0 0.76172,0.10742 0.3711,0.0977 0.72266,0.3125 0.36133,0.21484 0.61523,0.625 0.25391,0.41016 0.33203,0.9668 l 0.0488,0.30273 -1.5625,0.50781 -0.0391,-0.33203 q -0.0781,-0.50781 -0.40039,-0.76172 -0.3125,-0.26367 -0.75195,-0.26367 -0.63477,0 -1.02539,0.41016 -0.39063,0.40039 -0.39063,0.83984 0,0.30274 0.27344,0.55664 0.2832,0.25391 0.69336,0.43946 0.41015,0.17578 0.89844,0.42968 0.48828,0.24414 0.89843,0.51758 0.41016,0.26367 0.6836,0.72266 0.2832,0.45898 0.2832,1.04492 0,1.49414 -1.2793,2.65625 -1.27929,1.16211 -2.95898,1.16211 -1.18164,0 -1.98242,-0.71289 -0.79102,-0.71289 -0.79102,-2.06055 l 0.0684,-0.64453 1.5625,-0.18555 q -0.0195,0.33203 -0.0195,0.55664 0,0.81055 0.41992,1.19141 0.41992,0.38086 1.06445,0.38086 1.00586,0 1.66993,-0.64453 0.66406,-0.64453 0.66406,-1.32813 0,-0.39062 -0.2832,-0.70312 -0.27344,-0.3125 -0.69336,-0.50781 -0.41993,-0.19532 -0.91797,-0.42969 -0.48828,-0.23438 -0.90821,-0.46875 -0.41992,-0.24414 -0.70312,-0.6543 -0.27344,-0.41016 -0.27344,-0.94726 z"
           style="font-style:italic;font-variant:normal;font-weight:bold;font-stretch:normal;font-size:20px;font-family:Sawasdee;-inkscape-font-specification:'Sawasdee Bold';fill:#2288d4;fill-opacity:1"
           id="path4281"
           inkscape:connector-curvature="0" />
        <path
           d="m 977.89453,264.94928 6.18164,0 q -0.0977,-1.12304 -0.82031,-1.80664 -0.71289,-0.69336 -1.75781,-0.69336 -1.04493,0 -2.05078,0.69336 -1.00586,0.69336 -1.55274,1.80664 z m -2.08008,2.23633 q 0,-1.57226 0.85938,-3.01758 0.86914,-1.45507 2.25586,-2.32421 1.39648,-0.87891 2.87109,-0.87891 1.71875,0 2.7832,1.15234 1.06446,1.14258 1.06446,2.85157 0,0.50781 -0.15625,1.42578 l -8.10547,0 q -0.0391,0.33203 -0.0391,0.51757 0,1.20118 0.73242,1.98243 0.73242,0.77148 1.83594,0.77148 0.96679,0 1.90429,-0.48828 0.9375,-0.49805 1.70899,-1.45508 l 1.18164,0.71289 q -0.52735,0.67383 -1.15235,1.19141 -0.61523,0.50781 -1.15234,0.79101 -0.53711,0.28321 -1.10352,0.45899 -0.55664,0.17578 -0.94726,0.22461 -0.38086,0.0488 -0.73242,0.0488 -1.72852,0 -2.77344,-1.12305 -1.03516,-1.12305 -1.03516,-2.8418 z"
           style="font-style:italic;font-variant:normal;font-weight:bold;font-stretch:normal;font-size:20px;font-family:Sawasdee;-inkscape-font-specification:'Sawasdee Bold';fill:#2288d4;fill-opacity:1"
           id="path4283"
           inkscape:connector-curvature="0" />
        <path
           d="m 988.72461,264.03132 q 0,-1.21094 0.97656,-2.14844 0.97656,-0.9375 2.34375,-0.9375 0.39063,0 0.76172,0.10742 0.37109,0.0977 0.72266,0.3125 0.36132,0.21484 0.61523,0.625 0.25391,0.41016 0.33203,0.9668 l 0.0488,0.30273 -1.5625,0.50781 -0.0391,-0.33203 q -0.0781,-0.50781 -0.40039,-0.76172 -0.3125,-0.26367 -0.75196,-0.26367 -0.63476,0 -1.02539,0.41016 -0.39062,0.40039 -0.39062,0.83984 0,0.30274 0.27344,0.55664 0.2832,0.25391 0.69336,0.43946 0.41015,0.17578 0.89843,0.42968 0.48828,0.24414 0.89844,0.51758 0.41016,0.26367 0.68359,0.72266 0.28321,0.45898 0.28321,1.04492 0,1.49414 -1.2793,2.65625 -1.2793,1.16211 -2.95898,1.16211 -1.18164,0 -1.98243,-0.71289 -0.79101,-0.71289 -0.79101,-2.06055 l 0.0684,-0.64453 1.5625,-0.18555 q -0.0195,0.33203 -0.0195,0.55664 0,0.81055 0.41992,1.19141 0.41992,0.38086 1.06445,0.38086 1.00586,0 1.66992,-0.64453 0.66407,-0.64453 0.66407,-1.32813 0,-0.39062 -0.28321,-0.70312 -0.27343,-0.3125 -0.69336,-0.50781 -0.41992,-0.19532 -0.91797,-0.42969 -0.48828,-0.23438 -0.9082,-0.46875 -0.41992,-0.24414 -0.70312,-0.6543 -0.27344,-0.41016 -0.27344,-0.94726 z"
           style="font-style:italic;font-variant:normal;font-weight:bold;font-stretch:normal;font-size:20px;font-family:Sawasdee;-inkscape-font-specification:'Sawasdee Bold';fill:#2288d4;fill-opacity:1"
           id="path4285"
           inkscape:connector-curvature="0" />
        <path
           d="m 997.5918,264.03132 q 0,-1.21094 0.97656,-2.14844 0.97656,-0.9375 2.34374,-0.9375 0.3906,0 0.7617,0.10742 0.3711,0.0977 0.7227,0.3125 0.3613,0.21484 0.6152,0.625 0.2539,0.41016 0.332,0.9668 l 0.049,0.30273 -1.5625,0.50781 -0.039,-0.33203 q -0.078,-0.50781 -0.4004,-0.76172 -0.3125,-0.26367 -0.7519,-0.26367 -0.6348,0 -1.02542,0.41016 -0.39062,0.40039 -0.39062,0.83984 0,0.30274 0.27343,0.55664 0.28321,0.25391 0.69341,0.43946 0.4101,0.17578 0.8984,0.42968 0.4883,0.24414 0.8984,0.51758 0.4102,0.26367 0.6836,0.72266 0.2832,0.45898 0.2832,1.04492 0,1.49414 -1.2793,2.65625 -1.2793,1.16211 -2.95896,1.16211 -1.18164,0 -1.98242,-0.71289 -0.79101,-0.71289 -0.79101,-2.06055 l 0.0684,-0.64453 1.5625,-0.18555 q -0.0195,0.33203 -0.0195,0.55664 0,0.81055 0.41993,1.19141 0.41992,0.38086 1.06445,0.38086 1.00591,0 1.66991,-0.64453 0.6641,-0.64453 0.6641,-1.32813 0,-0.39062 -0.2832,-0.70312 -0.2734,-0.3125 -0.6934,-0.50781 -0.41991,-0.19532 -0.91796,-0.42969 -0.48828,-0.23438 -0.9082,-0.46875 -0.41992,-0.24414 -0.70313,-0.6543 -0.27343,-0.41016 -0.27343,-0.94726 z"
           style="font-style:italic;font-variant:normal;font-weight:bold;font-stretch:normal;font-size:20px;font-family:Sawasdee;-inkscape-font-specification:'Sawasdee Bold';fill:#2288d4;fill-opacity:1"
           id="path4287"
           inkscape:connector-curvature="0" />
        <path
           d="m 1007.8359,263.03522 q 0.6641,-0.86914 1.543,-1.45508 0.8789,-0.58593 1.6309,-0.58593 1.0351,0 1.5918,0.55664 0.5566,0.54687 0.6836,1.48437 0.7226,-0.88867 1.5918,-1.46484 0.8691,-0.57617 1.6015,-0.57617 1.2012,0 1.7676,0.75195 0.5664,0.74219 0.5664,1.95312 0,0.49805 -0.1465,1.31836 l -1.2988,6.00586 -1.5235,0 1.2696,-6.00586 q 0.1269,-0.61523 0.1269,-1.06445 0,-0.64453 -0.2636,-1.05469 -0.2539,-0.41992 -0.8301,-0.41992 -0.5274,0 -1.2793,0.63477 -0.752,0.625 -1.3379,1.48437 -0.5859,0.84961 -0.7227,1.48438 l -1.0546,4.9414 -1.5333,0 1.2696,-6.05468 q 0.1269,-0.61524 0.1269,-1.05469 0,-1.48438 -1.084,-1.48438 -0.498,0 -1.2402,0.61524 -0.7324,0.60547 -1.3379,1.47461 -0.5957,0.86914 -0.7422,1.54297 l -1.0547,4.96093 -1.5527,0 1.5039,-6.99218 q 0.2442,-1.05469 0.2442,-2.2754 0,-0.41992 -0.059,-0.65429 l 1.709,0 q 0.039,0.26367 0.039,0.65429 0,0.50782 -0.2051,1.2793 z"
           style="font-style:italic;font-variant:normal;font-weight:bold;font-stretch:normal;font-size:20px;font-family:Sawasdee;-inkscape-font-specification:'Sawasdee Bold';fill:#2288d4;fill-opacity:1"
           id="path4289"
           inkscape:connector-curvature="0" />
        <path
           d="m 1022.7383,264.94928 6.1816,0 q -0.098,-1.12304 -0.8203,-1.80664 -0.7129,-0.69336 -1.7578,-0.69336 -1.0449,0 -2.0508,0.69336 -1.0058,0.69336 -1.5527,1.80664 z m -2.0801,2.23633 q 0,-1.57226 0.8594,-3.01758 0.8691,-1.45507 2.2558,-2.32421 1.3965,-0.87891 2.8711,-0.87891 1.7188,0 2.7832,1.15234 1.0645,1.14258 1.0645,2.85157 0,0.50781 -0.1563,1.42578 l -8.1054,0 q -0.039,0.33203 -0.039,0.51757 0,1.20118 0.7324,1.98243 0.7324,0.77148 1.836,0.77148 0.9668,0 1.9043,-0.48828 0.9375,-0.49805 1.7089,-1.45508 l 1.1817,0.71289 q -0.5274,0.67383 -1.1524,1.19141 -0.6152,0.50781 -1.1523,0.79101 -0.5371,0.28321 -1.1035,0.45899 -0.5567,0.17578 -0.9473,0.22461 -0.3808,0.0488 -0.7324,0.0488 -1.7285,0 -2.7734,-1.12305 -1.0352,-1.12305 -1.0352,-2.8418 z"
           style="font-style:italic;font-variant:normal;font-weight:bold;font-stretch:normal;font-size:20px;font-family:Sawasdee;-inkscape-font-specification:'Sawasdee Bold';fill:#2288d4;fill-opacity:1"
           id="path4291"
           inkscape:connector-curvature="0" />
        <path
           d="m 1035.0723,261.10163 q 0.059,0.26367 0.059,0.67383 0,0.35156 -0.1856,1.24023 0.7324,-0.83984 1.6699,-1.44531 0.9473,-0.60547 1.709,-0.60547 1.3086,0 1.9336,0.77148 0.6348,0.77149 0.6348,2.03125 0,0.60547 -0.127,1.20118 l -1.289,6.05468 -1.5528,0 1.2989,-6.05468 q 0.098,-0.50782 0.098,-0.9375 0,-0.70313 -0.3125,-1.15235 -0.3027,-0.44922 -1.0156,-0.44922 -0.6348,0 -1.4844,0.66407 -0.8398,0.65429 -1.4648,1.51367 -0.6153,0.84961 -0.7422,1.45508 l -1.0645,4.96093 -1.5429,0 1.5039,-6.99218 q 0.2441,-1.13282 0.2441,-2.29493 0,-0.43945 -0.059,-0.63476 l 1.6895,0 z"
           style="font-style:italic;font-variant:normal;font-weight:bold;font-stretch:normal;font-size:20px;font-family:Sawasdee;-inkscape-font-specification:'Sawasdee Bold';fill:#2288d4;fill-opacity:1"
           id="path4293"
           inkscape:connector-curvature="0" />
        <path
           d="m 1043.8125,271.00397 -1.5527,0 1.7968,-8.42773 -0.8593,0 0.3125,-1.45508 0.8789,0 0.459,-2.1875 1.5234,0 -0.459,2.1875 2.8223,0 -0.8399,1.45508 -2.2949,0 -1.7871,8.42773 z"
           style="font-style:italic;font-variant:normal;font-weight:bold;font-stretch:normal;font-size:20px;font-family:Sawasdee;-inkscape-font-specification:'Sawasdee Bold';fill:#2288d4;fill-opacity:1"
           id="path4295"
           inkscape:connector-curvature="0" />
      </g>
    </g>
  </g>
</svg>
