<?xml version="1.0" encoding="UTF-8" standalone="no"?>
<svg
   xmlns:dc="http://purl.org/dc/elements/1.1/"
   xmlns:cc="http://creativecommons.org/ns#"
   xmlns:rdf="http://www.w3.org/1999/02/22-rdf-syntax-ns#"
   xmlns:svg="http://www.w3.org/2000/svg"
   xmlns="http://www.w3.org/2000/svg"
   xmlns:sodipodi="http://sodipodi.sourceforge.net/DTD/sodipodi-0.dtd"
   xmlns:inkscape="http://www.inkscape.org/namespaces/inkscape"
   enable-background="new 0 0 64 64"
   height="64px"
   version="1.1"
   viewBox="0 0 64 64"
   width="64px"
   xml:space="preserve"
   id="svg2"
   inkscape:version="0.48.4 r9939"
   sodipodi:docname="contact.svg"
   inkscape:export-filename="/home/gpetit/ownCloud/Noise_Planet/noise-planet.org/V2/assets/img/contact.png"
   inkscape:export-xdpi="112.5"
   inkscape:export-ydpi="112.5"><metadata
     id="metadata48"><rdf:RDF><cc:Work
         rdf:about=""><dc:format>image/svg+xml</dc:format><dc:type
           rdf:resource="http://purl.org/dc/dcmitype/StillImage" /><dc:title></dc:title></cc:Work></rdf:RDF></metadata><defs
     id="defs46" /><sodipodi:namedview
     pagecolor="#ffffff"
     bordercolor="#666666"
     borderopacity="1"
     objecttolerance="10"
     gridtolerance="10"
     guidetolerance="10"
     inkscape:pageopacity="0"
     inkscape:pageshadow="2"
     inkscape:window-width="1920"
     inkscape:window-height="1123"
     id="namedview44"
     showgrid="false"
     inkscape:zoom="5.2149125"
     inkscape:cx="111.79809"
     inkscape:cy="19.45164"
     inkscape:window-x="0"
     inkscape:window-y="24"
     inkscape:window-maximized="1"
     inkscape:current-layer="svg2" /><circle
     cx="32"
     cy="32"
     r="32"
     id="circle7"
     sodipodi:cx="32"
     sodipodi:cy="32"
     sodipodi:rx="32"
     sodipodi:ry="32"
     style="fill:#33a4e5;fill-opacity:1" /><path
     style="opacity:0.2;fill:#231f20"
     inkscape:connector-curvature="0"
     id="path13"
     d="m 52,44 c 0,2.209 -1.791,4 -4,4 H 16 c -2.209,0 -4,-1.791 -4,-4 V 24 c 0,-2.209 1.791,-4 4,-4 h 32 c 2.209,0 4,1.791 4,4 v 20 z" /><path
     style="fill:#e0e0d1"
     inkscape:connector-curvature="0"
     id="path17"
     d="m 52,42 c 0,2.209 -1.791,4 -4,4 H 16 c -2.209,0 -4,-1.791 -4,-4 V 22 c 0,-2.209 1.791,-4 4,-4 h 32 c 2.209,0 4,1.791 4,4 v 20 z" /><path
     d="m 35.524,30.185 c -1.938,-2.146 -5.109,-2.146 -7.047,0 L 13.05,43.228 c -0.18,0.199 -0.328,0.393 -0.461,0.585 C 13.29,45.119 14.549,46 16,46 h 32 c 1.451,0 2.71,-0.881 3.411,-2.187 C 51.278,43.622 51.13,43.428 50.95,43.228 L 35.524,30.185 z"
     id="path23"
     inkscape:connector-curvature="0"
     style="opacity:0.2;fill:#231f20" /><path
     d="m 35.524,32 c -1.938,-1.9 -5.109,-1.9 -7.047,0 L 13.05,43.546 c -0.18,0.176 -0.328,0.348 -0.461,0.517 C 13.29,45.22 14.549,46 16,46 h 32 c 1.451,0 2.71,-0.78 3.411,-1.936 C 51.278,43.895 51.13,43.723 50.95,43.547 L 35.524,32 z"
     id="path29"
     inkscape:connector-curvature="0"
     style="fill:#e0e0d1" /><path
     d="M 12.589,20.187 C 13.29,18.881 14.549,18 16,18 h 32 c 1.451,0 2.71,0.881 3.411,2.187 -0.133,0.191 -0.281,0.385 -0.461,0.585 L 35.524,33.815 c -1.938,2.146 -5.109,2.146 -7.047,0 L 12.589,20.187 z"
     id="path35"
     inkscape:connector-curvature="0"
     style="opacity:0.2;fill:#231f20" /><path
     d="m 28.476,32 c 1.938,1.9 5.109,1.9 7.047,0 L 50.95,20.454 c 0.18,-0.176 0.328,-0.348 0.461,-0.517 C 50.71,18.78 49.451,18 48,18 H 16 c -1.451,0 -2.71,0.78 -3.411,1.936 0.133,0.169 0.281,0.341 0.461,0.517 L 28.476,32 z"
     id="path41"
     inkscape:connector-curvature="0"
     style="fill:#ffffff" /><g
     id="Layer_2" /></svg>