<?xml version="1.0" encoding="UTF-8" standalone="no"?>
<!-- Generator: Adobe Illustrator 22.0.1, SVG Export Plug-In . SVG Version: 6.00 Build 0)  -->

<svg
   xmlns:dc="http://purl.org/dc/elements/1.1/"
   xmlns:cc="http://creativecommons.org/ns#"
   xmlns:rdf="http://www.w3.org/1999/02/22-rdf-syntax-ns#"
   xmlns:svg="http://www.w3.org/2000/svg"
   xmlns="http://www.w3.org/2000/svg"
   xmlns:sodipodi="http://sodipodi.sourceforge.net/DTD/sodipodi-0.dtd"
   xmlns:inkscape="http://www.inkscape.org/namespaces/inkscape"
   version="1.1"
   id="Calque_1"
   x="0px"
   y="0px"
   viewBox="0 0 487.3 100.6"
   style="enable-background:new 0 0 487.3 100.6;"
   xml:space="preserve"
   sodipodi:docname="Universite_Gustave_Eiffel.svg"
   inkscape:version="0.92.4 (fd57863, 2020-04-02)"
   inkscape:export-filename="/home/gpetit/Nextcloud/Plateformes/Noise_Planet/Logos/Tutelles/Universite_Gustave_Eiffel.png"
   inkscape:export-xdpi="477.13718"
   inkscape:export-ydpi="477.13718"><metadata
   id="metadata77"><rdf:RDF><cc:Work
       rdf:about=""><dc:format>image/svg+xml</dc:format><dc:type
         rdf:resource="http://purl.org/dc/dcmitype/StillImage" /></cc:Work></rdf:RDF></metadata><defs
   id="defs75">
	
	
	
	
	
	
	
	
	
	
	
	
	
	
	
	
	
	
	
	
	
	
	
	
	
	
	
	
	
	
	
	
	
</defs><sodipodi:namedview
   pagecolor="#ffffff"
   bordercolor="#666666"
   borderopacity="1"
   objecttolerance="10"
   gridtolerance="10"
   guidetolerance="10"
   inkscape:pageopacity="0"
   inkscape:pageshadow="2"
   inkscape:window-width="1920"
   inkscape:window-height="1163"
   id="namedview73"
   showgrid="false"
   inkscape:zoom="1.9166838"
   inkscape:cx="308.94257"
   inkscape:cy="17.209527"
   inkscape:window-x="1366"
   inkscape:window-y="0"
   inkscape:window-maximized="1"
   inkscape:current-layer="Calque_1" />
<style
   type="text/css"
   id="style2">
	.st0{fill:#FFFFFF;}
</style>
<g
   id="g961"
   transform="translate(15.652034,3.6521412)"><path
     class="st0"
     d="m 63.839294,77.953105 c -5.047324,-3.458351 -11.029337,-5.32773 -17.104819,-5.32773 -8.131798,0 -15.796252,2.991006 -21.404389,8.505674 -2.991007,2.991007 -5.32773,6.449358 -6.823234,10.468523 l -0.654282,1.588972 h 13.179122 l 0.373876,-0.560814 c 0.654282,-1.028158 1.495503,-2.056316 2.430192,-2.897537 3.364882,-3.271413 7.944861,-5.140792 12.992184,-5.140792 6.075482,0 11.683619,2.991006 15.141971,8.038329 l 0.373875,0.467345 h 13.272591 l -0.84122,-1.495503 C 72.531906,86.084904 68.699679,81.411456 63.839294,77.953105"
     id="path4"
     inkscape:connector-curvature="0"
     style="fill:#450085;fill-opacity:1;stroke-width:0.93468952" /><path
     class="st0"
     d="M 12.057495,25.423555 C 9.0664882,22.432548 5.6081371,20.095824 1.5889722,18.600321 L 0,17.946039 v 13.179122 l 0.56081371,0.373875 c 1.02815849,0.654283 2.05631689,1.495504 2.89753749,2.430193 3.2714133,3.364882 5.1407923,7.944861 5.1407923,12.992184 0,6.075482 -2.9910064,11.683619 -8.03832979,15.14197 L 0,62.34379 V 75.616381 L 1.5889722,74.962099 C 7.1036403,72.718844 11.870557,68.886617 15.235439,64.026231 c 3.458351,-5.140792 5.32773,-11.029336 5.32773,-17.198287 0,-8.131798 -2.991006,-15.796252 -8.505674,-21.404389"
     id="path6"
     inkscape:connector-curvature="0"
     style="fill:#450085;fill-opacity:1;stroke-width:0.93468952" /><path
     class="st0"
     d="m 29.629657,15.515846 c 5.047324,3.458351 11.029337,5.32773 17.104818,5.32773 8.131799,0 15.796253,-2.991006 21.40439,-8.505674 2.991007,-2.9910069 5.32773,-6.4493581 6.823234,-10.468523 L 75.616381,0.28040685 H 62.437259 L 62.063383,0.84122056 C 61.409101,1.869379 60.56788,2.8040685 59.72666,3.738758 56.361777,7.0101713 51.68833,8.7860814 46.734475,8.7860814 c -6.075481,0 -11.683618,-2.9910064 -15.14197,-8.03832979 L 31.21863,0.1869379 H 17.946039 l 0.654282,1.6824411 c 2.243255,5.5146681 6.075482,10.281585 11.029336,13.646467"
     id="path8"
     inkscape:connector-curvature="0"
     style="fill:#450085;fill-opacity:1;stroke-width:0.93468952" /><path
     class="st0"
     d="M 92.908137,31.592505 93.375482,31.21863 V 17.946039 l -1.588972,0.654282 c -5.514668,2.243255 -10.281585,6.075482 -13.646467,10.935868 -3.458351,5.047323 -5.32773,11.029336 -5.32773,17.198286 0,8.131799 2.991006,15.796253 8.505674,21.40439 2.991007,2.991007 6.449358,5.32773 10.468523,6.823234 l 1.588972,0.654282 V 62.437259 L 92.814668,62.063383 C 91.78651,61.409101 90.758351,60.56788 89.917131,59.633191 86.645718,56.268308 84.776339,51.68833 84.776339,46.641007 c 0.09347,-5.982013 3.084475,-11.683619 8.131798,-15.048502"
     id="path10"
     inkscape:connector-curvature="0"
     style="fill:#450085;fill-opacity:1;stroke-width:0.93468952" /><path
     class="st0"
     d="m 58.605032,46.827944 c 0,6.636296 -5.421199,12.057495 -12.057494,12.057495 -6.636296,0 -11.964026,-5.421199 -11.964026,-12.057495 0,-6.636295 5.421199,-12.057494 12.057495,-12.057494 6.542826,0.09347 11.964025,5.421199 11.964025,12.057494"
     id="path12"
     inkscape:connector-curvature="0"
     style="fill:#450085;fill-opacity:1;stroke-width:0.93468952" /><path
     class="st0"
     d="m 130.95,27.947216 c -1.58897,-1.682441 -2.43019,-3.738758 -2.43019,-6.262419 V 0.1869379 h -7.47752 V 21.684797 c 0,4.39304 1.4955,8.131798 4.48651,11.029336 2.99101,2.991006 6.72977,4.486509 11.21628,4.486509 4.4865,0 8.31873,-1.495503 11.21627,-4.486509 2.99101,-2.991007 4.48651,-6.636296 4.48651,-11.029336 V 0.1869379 h -7.47752 V 21.684797 c 0,2.430192 -0.84122,4.579978 -2.43019,6.262419 -1.58897,1.682441 -3.55182,2.523662 -5.79507,2.523662 -2.24326,0 -4.20611,-0.841221 -5.79508,-2.523662"
     id="path14"
     inkscape:connector-curvature="0"
     style="fill:#450085;fill-opacity:1;stroke-width:0.93468952" /><path
     class="st0"
     d="m 176.0955,18.600321 c 0.93469,0.93469 1.40204,2.243255 1.40204,3.925696 v 13.926874 h 6.72976 V 21.684797 c 0,-3.364883 -0.93469,-6.075482 -2.7106,-8.03833 -1.77591,-1.962848 -4.2061,-2.991007 -7.01017,-2.991007 -1.40203,0 -2.7106,0.373876 -3.92569,1.028159 -1.2151,0.654283 -2.05632,1.215096 -2.4302,1.588972 -0.37387,0.373876 -0.65428,0.747752 -0.84122,1.028159 l -0.2804,0.373875 v -3.458351 h -6.72977 v 25.236617 h 6.72977 V 23.367238 c 0,-1.962848 0.46734,-3.458351 1.4955,-4.579979 0.93469,-1.028158 2.24325,-1.588972 3.92569,-1.588972 1.40204,-0.09347 2.7106,0.467345 3.64529,1.402034"
     id="path16"
     inkscape:connector-curvature="0"
     style="fill:#450085;fill-opacity:1;stroke-width:0.93468952" /><path
     class="st0"
     d="m 194.78929,7.4775161 c 1.2151,0 2.24326,-0.3738758 2.89754,-1.0281585 0.74775,-0.6542826 1.02816,-1.5889721 1.02816,-2.7105996 0,-1.1216274 -0.37388,-2.0563169 -1.02816,-2.7105995 C 196.93908,0.3738758 196.00439,0 194.78929,0 c -1.12162,0 -2.05631,0.3738758 -2.7106,1.0281585 -0.65428,0.6542826 -1.02815,1.5889721 -1.02815,2.7105995 0,1.1216275 0.37387,2.056317 1.02815,2.7105996 0.65429,0.7477516 1.49551,1.0281585 2.7106,1.0281585"
     id="path18"
     inkscape:connector-curvature="0"
     style="fill:#450085;fill-opacity:1;stroke-width:0.93468952" /><rect
     x="191.51787"
     y="11.216274"
     class="st0"
     width="6.7297645"
     height="25.236616"
     id="rect20"
     style="fill:#450085;fill-opacity:1;stroke-width:0.93468952" /><polygon
     transform="scale(0.93468951)"
     class="st0"
     points="216.7,12 226.9,39 234.4,39 244.6,12 237.2,12 230.6,30.4 230.5,30 224.1,12 "
     id="polygon22"
     style="fill:#450085;fill-opacity:1" /><path
     class="st0"
     d="m 248.25353,36.452891 c 1.2151,-0.280407 2.24326,-0.654283 2.99101,-1.028159 0.74775,-0.373875 1.4955,-0.84122 2.24326,-1.308565 0.65428,-0.467345 1.12162,-0.84122 1.30856,-1.028158 l 0.37388,-0.373876 -3.45835,-4.393041 -0.65429,0.654283 c -0.46734,0.560814 -1.21509,1.028158 -2.43019,1.588972 -1.12163,0.560814 -2.43019,0.747752 -3.73876,0.747752 -1.86938,0 -3.45835,-0.467345 -4.67345,-1.495504 -1.21509,-0.934689 -1.96284,-2.149786 -2.24325,-3.645289 v -0.186938 h 18.50685 l 0.28041,-2.710599 c 0,-3.55182 -1.2151,-6.636296 -3.55182,-8.973019 -2.33673,-2.430193 -5.4212,-3.64529 -8.97302,-3.64529 -3.55182,0 -6.72977,1.308566 -9.25343,3.832227 -2.52366,2.523662 -3.83222,5.701606 -3.83222,9.253427 0,3.55182 1.30856,6.729764 3.92569,9.253426 2.61713,2.523661 5.79508,3.832227 9.44037,3.832227 1.21509,0.09347 2.52366,-0.09347 3.73875,-0.373876 M 238.06542,21.123983 c 0.46734,-1.402034 1.21509,-2.617131 2.24325,-3.458351 1.02816,-0.841221 2.33673,-1.308566 3.9257,-1.308566 1.4955,0 2.80407,0.467345 3.92569,1.402035 1.02816,0.934689 1.68245,2.056317 1.96285,3.458351 v 0.186938 h -12.15096 z"
     id="path24"
     inkscape:connector-curvature="0"
     style="fill:#450085;fill-opacity:1;stroke-width:0.93468952" /><path
     class="st0"
     d="m 277.32238,17.572163 v -6.636296 h -0.84122 c -1.40204,0 -2.7106,0.280407 -3.9257,0.93469 -1.2151,0.654282 -2.05632,1.121627 -2.43019,1.495503 -0.37388,0.373876 -0.65428,0.654283 -0.84122,0.93469 l -0.28041,0.280406 v -3.364882 h -6.72976 v 25.236617 h 6.72976 V 24.301927 c 0,-2.243255 0.56081,-3.925696 1.68244,-5.140792 1.12163,-1.215096 2.61713,-1.77591 4.48651,-1.77591 0.93469,0 1.68244,0.09347 2.14979,0.186938"
     id="path26"
     inkscape:connector-curvature="0"
     style="fill:#450085;fill-opacity:1;stroke-width:0.93468952" /><path
     class="st0"
     d="m 298.53983,25.143148 c -0.74775,-1.028159 -1.77591,-1.77591 -2.89754,-2.243255 -1.12163,-0.467345 -2.33672,-0.93469 -3.45835,-1.215096 -1.12163,-0.373876 -2.14979,-0.747752 -2.99101,-1.215097 -0.84122,-0.467344 -1.30856,-1.028158 -1.30856,-1.77591 0,-0.560814 0.28041,-1.121627 0.93469,-1.588972 0.56081,-0.467345 1.40203,-0.654283 2.33672,-0.654283 0.74775,0 1.58897,0.186938 2.33673,0.560814 0.74775,0.373876 1.21509,0.747752 1.4955,0.93469 0.18694,0.186937 0.28041,0.280406 0.37388,0.467344 l 3.45835,-3.925696 -0.84122,-0.84122 c -0.56082,-0.560814 -1.58898,-1.215097 -2.99101,-1.869379 -1.4955,-0.654283 -3.08448,-0.93469 -4.76692,-0.93469 -2.7106,0 -5.04732,0.841221 -6.9167,2.430193 -1.86938,1.588972 -2.80407,3.458351 -2.80407,5.421199 0,1.495503 0.37388,2.804069 1.12163,3.832227 0.74775,1.028159 1.77591,1.77591 2.89754,2.243255 1.12162,0.467345 2.33672,0.93469 3.45835,1.215096 1.21509,0.373876 2.14978,0.747752 2.991,1.215097 0.84122,0.467344 1.30857,1.121627 1.30857,1.869379 0,0.747751 -0.28041,1.402034 -0.93469,1.77591 -0.56081,0.467345 -1.4955,0.654282 -2.61713,0.654282 -1.02816,0 -2.05632,-0.280406 -2.99101,-0.84122 -0.93469,-0.560814 -1.58897,-0.93469 -1.86938,-1.308565 -0.18693,-0.280407 -0.37387,-0.467345 -0.56081,-0.654283 l -3.73876,3.645289 0.28041,0.467345 c 0.28041,0.280407 0.65428,0.654282 1.2151,1.121627 0.56081,0.467345 1.21509,0.93469 1.96284,1.308566 0.74776,0.467344 1.77591,0.84122 2.89754,1.121627 1.2151,0.280407 2.52366,0.467345 3.83223,0.467345 3.08447,0 5.60814,-0.747752 7.29058,-2.243255 1.77591,-1.495503 2.61713,-3.364882 2.61713,-5.608137 0,-1.495503 -0.37388,-2.804069 -1.12163,-3.832227"
     id="path28"
     inkscape:connector-curvature="0"
     style="fill:#450085;fill-opacity:1;stroke-width:0.93468952" /><path
     class="st0"
     d="m 308.63448,7.4775161 c 1.21509,0 2.24325,-0.3738758 2.89753,-1.0281585 0.74776,-0.6542826 1.02816,-1.5889721 1.02816,-2.7105996 0,-1.1216274 -0.37387,-2.0563169 -1.02816,-2.7105995 C 310.78426,0.3738758 309.84957,0 308.63448,0 c -1.12163,0 -2.05632,0.3738758 -2.7106,1.0281585 -0.65429,0.6542826 -1.02816,1.5889721 -1.02816,2.7105995 0,1.1216275 0.37387,2.056317 1.02816,2.7105996 0.65428,0.7477516 1.58897,1.0281585 2.7106,1.0281585"
     id="path30"
     inkscape:connector-curvature="0"
     style="fill:#450085;fill-opacity:1;stroke-width:0.93468952" /><rect
     x="305.45651"
     y="11.216274"
     class="st0"
     width="6.7297645"
     height="25.236616"
     id="rect32"
     style="fill:#450085;fill-opacity:1;stroke-width:0.93468952" /><path
     class="st0"
     d="m 331.81478,31.031692 c -0.93469,0 -1.68245,-0.280407 -2.33673,-0.841221 -0.65428,-0.560814 -0.93469,-1.308565 -0.93469,-2.149786 V 17.759101 h 5.1408 v -5.982013 h -5.1408 V 3.6452891 h -5.98201 v 4.4865096 c 0,1.0281585 -0.28041,1.8693793 -0.84122,2.5236613 -0.56081,0.654283 -1.30857,1.028159 -2.14979,1.028159 h -2.14978 v 5.982013 h 4.39304 v 10.561991 c 0,5.888544 2.61713,8.692613 7.94486,8.692613 h 0.18694 c 1.58897,0 3.08447,-0.280407 4.39304,-0.747752 v -5.701606 h -0.0935 c -0.18694,0.09347 -0.56081,0.186938 -1.02816,0.280407 -0.46734,0.186938 -0.93469,0.280407 -1.40203,0.280407"
     id="path34"
     inkscape:connector-curvature="0"
     style="fill:#450085;fill-opacity:1;stroke-width:0.93468952" /><path
     class="st0"
     d="m 350.04122,10.65546 c -3.55182,0 -6.72976,1.308566 -9.25342,3.832227 -2.52367,2.523662 -3.83223,5.701606 -3.83223,9.253427 0,3.55182 1.30856,6.729764 3.92569,9.253426 2.61713,2.523661 5.79508,3.832227 9.44037,3.832227 1.30856,0 2.61713,-0.186938 3.83223,-0.467345 1.21509,-0.280407 2.24325,-0.654283 2.991,-1.028159 0.74775,-0.373875 1.4955,-0.84122 2.14979,-1.308565 0.65428,-0.467345 1.12163,-0.84122 1.30856,-1.028158 l 0.37388,-0.373876 -3.45835,-4.393041 -0.65429,0.654283 c -0.46734,0.560814 -1.30856,1.028158 -2.43019,1.588972 -1.12163,0.560814 -2.43019,0.747752 -3.73876,0.747752 -1.86937,0 -3.45835,-0.467345 -4.67344,-1.495504 -1.2151,-0.934689 -1.96285,-2.149785 -2.24326,-3.645289 v -0.186938 h 18.50685 l 0.28041,-2.710599 c 0,-3.55182 -1.2151,-6.636296 -3.55182,-8.973019 -2.33672,-2.336724 -5.4212,-3.551821 -8.97302,-3.551821 m -6.16895,10.74893 0.0935,-0.186938 c 0.46734,-1.402034 1.2151,-2.617131 2.24325,-3.458351 1.02816,-0.841221 2.33673,-1.308566 3.9257,-1.308566 1.4955,0 2.80407,0.467345 3.9257,1.402035 1.02815,0.934689 1.68244,2.056317 1.96284,3.458351 v 0.186938 H 343.8723 Z"
     id="path36"
     inkscape:connector-curvature="0"
     style="fill:#450085;fill-opacity:1;stroke-width:0.93468952" /><polygon
     transform="scale(0.93468951)"
     class="st0"
     points="376.3,0 372,8 377.8,8 383.6,0 "
     id="polygon38"
     style="fill:#450085;fill-opacity:1" /><path
     class="st0"
     d="m 147.12013,84.308994 v 0 l -0.84122,0.747751 c -0.56082,0.467345 -1.4955,1.028159 -2.89754,1.495504 -1.40203,0.467344 -2.89754,0.747751 -4.48651,0.747751 -3.45835,0 -6.35589,-1.215096 -8.69261,-3.458351 -2.33673,-2.336724 -3.45835,-5.234261 -3.45835,-8.692612 0,-3.458352 1.21509,-6.355889 3.45835,-8.692613 2.33672,-2.336724 5.23426,-3.458351 8.69261,-3.458351 1.2151,0 2.52366,0.186938 3.64529,0.560814 1.2151,0.373875 2.14979,0.84122 2.89754,1.308565 0.74775,0.467345 1.40203,1.028158 2.05631,1.588972 0.65429,0.560814 1.02816,1.028159 1.2151,1.308565 l 0.0935,0.09347 c 0.0935,0.09347 0.18694,0.280407 0.28041,0.373876 l 4.76691,-4.766916 -0.46734,-0.654283 c -0.37388,-0.467345 -0.93469,-1.028158 -1.77591,-1.77591 -0.84122,-0.747752 -1.86938,-1.402034 -2.89754,-2.149786 -1.12163,-0.654283 -2.52366,-1.308565 -4.2061,-1.77591 -1.68244,-0.467345 -3.55182,-0.747752 -5.4212,-0.747752 -5.51467,0 -10.18812,1.869379 -13.92687,5.514669 -3.73876,3.645289 -5.70161,8.131798 -5.70161,13.272591 0,5.140792 1.86938,9.627302 5.70161,13.36606 3.73875,3.645289 8.50567,5.514668 13.92687,5.514668 1.86938,0 3.83223,-0.280407 5.60814,-0.747752 1.77591,-0.467345 3.27141,-1.028158 4.39304,-1.682441 1.12162,-0.654283 2.14978,-1.308565 3.17794,-2.149786 1.02816,-0.84122 1.68244,-1.402034 1.96285,-1.682441 0.28041,-0.280407 0.46734,-0.560814 0.56081,-0.654283 v -13.36606 h -14.02034 v 5.421199 h 6.54283 v 5.140793 z"
     id="path40"
     inkscape:connector-curvature="0"
     style="fill:#450085;fill-opacity:1;stroke-width:0.93468952" /><path
     class="st0"
     d="m 170.02002,86.084904 c -0.93469,-0.93469 -1.4955,-2.149786 -1.4955,-3.645289 V 67.951927 h -6.72977 v 15.14197 c 0,3.177945 0.93469,5.795075 2.7106,7.757923 1.77591,1.869379 4.11264,2.897538 7.01018,2.897538 1.40203,0 2.71059,-0.280407 3.92569,-0.841221 1.2151,-0.560813 2.05632,-1.028158 2.43019,-1.308565 0.37388,-0.373876 0.65429,-0.654283 0.84122,-0.841221 l 0.28041,-0.280406 v 2.897537 h 6.72977 V 68.138865 h -6.72977 v 13.36606 c 0,1.962848 -0.46734,3.458351 -1.4955,4.48651 -0.93469,1.028158 -2.24326,1.588972 -3.9257,1.588972 -1.30856,-0.09347 -2.61713,-0.560814 -3.55182,-1.495503"
     id="path42"
     inkscape:connector-curvature="0"
     style="fill:#450085;fill-opacity:1;stroke-width:0.93468952" /><path
     class="st0"
     d="m 207.22066,79.635546 c -1.12162,-0.467345 -2.33672,-0.934689 -3.45835,-1.215096 -1.12162,-0.373876 -2.14978,-0.747752 -2.89753,-1.215096 -0.84122,-0.467345 -1.30857,-1.121628 -1.30857,-1.775911 0,-0.560813 0.28041,-1.121627 0.93469,-1.588972 0.56081,-0.467344 1.40203,-0.654282 2.33672,-0.654282 0.74776,0 1.58898,0.186938 2.33673,0.560813 0.74775,0.373876 1.21509,0.747752 1.4955,0.93469 0.18694,0.186938 0.28041,0.280407 0.37388,0.467345 l 3.45835,-3.925696 -0.84122,-0.841221 c -0.56082,-0.560814 -1.58898,-1.215096 -3.08448,-1.869379 -1.4955,-0.654283 -3.08447,-0.934689 -4.76691,-0.934689 -2.7106,0 -5.04733,0.84122 -6.91671,2.430192 -1.86938,1.588972 -2.80407,3.458351 -2.80407,5.421199 0,1.495504 0.37388,2.804069 1.12163,3.832227 0.74775,1.028159 1.77591,1.775911 2.89754,2.243255 1.12163,0.467345 2.33672,0.93469 3.45835,1.215097 1.2151,0.373875 2.14979,0.747751 2.99101,1.215096 0.84122,0.467345 1.30856,1.121627 1.30856,1.869379 0,0.747752 -0.2804,1.402034 -0.93469,1.77591 -0.56081,0.467345 -1.4955,0.654283 -2.61713,0.654283 -1.02816,0 -2.05631,-0.280407 -2.991,-0.841221 -0.93469,-0.560814 -1.58898,-0.934689 -1.86938,-1.308565 -0.18694,-0.280407 -0.37388,-0.467345 -0.56082,-0.654283 l -3.73876,3.645289 0.28041,0.467345 c 0.28041,0.280407 0.65428,0.654283 1.2151,1.121627 0.56081,0.467345 1.21509,0.93469 1.96285,1.308566 0.74775,0.467345 1.77591,0.84122 2.89753,1.121627 1.2151,0.280407 2.52367,0.467345 3.83223,0.467345 3.08448,0 5.60814,-0.747752 7.38405,-2.243255 1.77591,-1.495503 2.61713,-3.364882 2.61713,-5.608137 0,-1.588972 -0.37388,-2.897537 -1.12163,-3.925696 -0.93469,-0.934689 -1.86938,-1.682441 -2.99101,-2.149786"
     id="path44"
     inkscape:connector-curvature="0"
     style="fill:#450085;fill-opacity:1;stroke-width:0.93468952" /><path
     class="st0"
     d="m 226.75568,86.926124 c -0.65429,-0.560813 -0.93469,-1.308565 -0.93469,-2.149785 V 74.494754 h 5.23426 v -5.982013 h -5.23426 v -8.03833 h -5.98202 v 4.48651 c 0,1.028158 -0.2804,1.869379 -0.84122,2.523662 -0.56081,0.654282 -1.30856,1.028158 -2.14978,1.028158 h -2.14979 v 5.982013 h 4.39304 v 10.561991 c 0,5.888544 2.61713,8.692613 7.94486,8.692613 h 0.18694 c 1.58897,0 3.08448,-0.280407 4.39304,-0.747752 V 87.3 h -0.0935 c -0.18694,0.09347 -0.56081,0.186938 -1.02816,0.280407 -0.46734,0.09347 -0.93469,0.186938 -1.40203,0.186938 -0.93469,0 -1.77591,-0.280407 -2.33672,-0.841221"
     id="path46"
     inkscape:connector-curvature="0"
     style="fill:#450085;fill-opacity:1;stroke-width:0.93468952" /><path
     class="st0"
     d="m 246.75803,67.484583 c -1.2151,0 -2.43019,0.186938 -3.55182,0.560813 -1.12163,0.373876 -2.14979,0.747752 -2.80407,1.215097 -0.65428,0.373875 -1.40203,0.934689 -1.96285,1.495503 -0.65428,0.560814 -1.02815,0.934689 -1.21509,1.121627 v 0.09347 c -0.0935,0.186938 -0.18694,0.280407 -0.28041,0.373876 l 3.64529,3.645289 0.46734,-0.467345 c 0.37388,-0.467344 1.12163,-0.934689 2.05632,-1.402034 0.93469,-0.467345 2.05632,-0.654283 3.17795,-0.654283 1.40203,0 2.52366,0.373876 3.36488,1.028159 0.84122,0.747752 1.21509,1.588972 1.21509,2.7106 v 0.09347 h -0.0935 l -8.1318,1.495504 c -2.33673,0.373875 -4.11264,1.308565 -5.4212,2.710599 -1.30857,1.308566 -1.96285,3.084476 -1.96285,5.140793 0,1.962848 0.74775,3.645289 2.33672,5.047323 1.58898,1.402034 3.64529,2.056317 6.07549,2.056317 1.30856,0 2.52366,-0.280407 3.73875,-0.841221 1.2151,-0.560813 1.96285,-1.028158 2.33673,-1.308565 0.37387,-0.373876 0.65428,-0.654283 0.84122,-0.841221 l 0.2804,-0.280406 v 2.897537 h 6.72977 V 77.48576 c 0,-2.897537 -1.02816,-5.234261 -2.99101,-7.10364 -2.05631,-1.962848 -4.67345,-2.897537 -7.85139,-2.897537 m 4.11263,14.955032 c 0,1.869379 -0.46734,3.271413 -1.4955,4.299572 -0.93469,1.028158 -2.24325,1.588972 -3.92569,1.588972 -2.33673,0 -3.55182,-0.93469 -3.55182,-2.7106 0,-1.682441 1.02815,-2.710599 2.991,-2.991006 l 5.88855,-1.121628 v 0.93469 z"
     id="path48"
     inkscape:connector-curvature="0"
     style="fill:#450085;fill-opacity:1;stroke-width:0.93468952" /><polygon
     transform="scale(0.93468951)"
     class="st0"
     points="297.6,99.7 307.7,72.7 300.3,72.7 293.8,91.2 293.6,90.8 287.3,72.7 279.8,72.7 290,99.7 "
     id="polygon50"
     style="fill:#450085;fill-opacity:1" /><path
     class="st0"
     d="m 303.21328,67.484583 c -3.55182,0 -6.72977,1.308565 -9.25343,3.832227 -2.52366,2.523661 -3.83223,5.701606 -3.83223,9.253426 0,3.55182 1.30857,6.729764 3.9257,9.253426 2.61713,2.523662 5.79507,3.832227 9.44036,3.832227 1.30857,0 2.61713,-0.186938 3.83223,-0.467345 1.2151,-0.280407 2.24326,-0.654283 2.99101,-1.028158 0.74775,-0.373876 1.4955,-0.841221 2.14978,-1.308566 0.74775,-0.560813 1.12163,-0.84122 1.30857,-1.028158 l 0.37387,-0.373876 -3.45835,-4.393041 -0.65428,0.654283 c -0.46734,0.560814 -1.2151,1.028159 -2.43019,1.588972 -1.12163,0.560814 -2.4302,0.747752 -3.73876,0.747752 -1.86938,0 -3.45835,-0.467345 -4.67345,-1.495503 -1.21509,-0.93469 -1.96285,-2.149786 -2.24325,-3.645289 v -0.186938 h 18.50685 l 0.28041,-2.7106 c 0,-3.55182 -1.2151,-6.636295 -3.55182,-8.973019 -2.33673,-2.336724 -5.4212,-3.55182 -8.97302,-3.55182 m -6.26242,10.65546 0.0935,-0.186938 c 0.46734,-1.402034 1.21509,-2.617131 2.24325,-3.458351 1.02816,-0.841221 2.33672,-1.308565 3.9257,-1.308565 1.4955,0 2.80407,0.467344 3.92569,1.402034 1.02816,0.934689 1.68244,2.056317 1.96285,3.458351 v 0.186938 h -12.15096 z"
     id="path52"
     inkscape:connector-curvature="0"
     style="fill:#450085;fill-opacity:1;stroke-width:0.93468952" /><polygon
     transform="scale(0.93468951)"
     class="st0"
     points="364.8,68.2 385.2,68.2 385.2,61 356.8,61 356.8,99.7 385.7,99.7 385.7,92.6 364.8,92.6 364.8,83.6 380.7,83.6 380.7,76.4 364.8,76.4 "
     id="polygon54"
     style="fill:#450085;fill-opacity:1" /><rect
     x="366.77216"
     y="67.951927"
     class="st0"
     width="6.7297645"
     height="25.236616"
     id="rect56"
     style="fill:#450085;fill-opacity:1;stroke-width:0.93468952" /><path
     class="st0"
     d="m 370.04358,56.829122 c -1.12163,0 -2.05632,0.373876 -2.7106,1.028159 -0.65429,0.654282 -1.02816,1.588972 -1.02816,2.710599 0,1.121628 0.37387,2.056317 1.02816,2.7106 0.65428,0.654282 1.58897,1.028158 2.7106,1.028158 1.21509,0 2.24325,-0.373876 2.89753,-1.028158 0.74776,-0.654283 1.02816,-1.588972 1.02816,-2.7106 0,-1.121627 -0.37387,-2.056317 -1.02816,-2.710599 -0.65428,-0.747752 -1.68244,-1.028159 -2.89753,-1.028159"
     id="path58"
     inkscape:connector-curvature="0"
     style="fill:#450085;fill-opacity:1;stroke-width:0.93468952" /><path
     class="st0"
     d="m 372.94111,63.27848 c -0.74775,0.654282 -1.68244,1.028158 -2.89753,1.028158 -1.12163,0 -2.05632,-0.373876 -2.7106,-1.028158 -0.65429,-0.654283 -1.02816,-1.588972 -1.02816,-2.7106 0,-1.121627 0.37387,-2.056317 1.02816,-2.710599 0.65428,-0.654283 1.58897,-1.028159 2.7106,-1.028159 1.21509,0 2.24325,0.373876 2.89753,1.028159 0.74776,0.654282 1.02816,1.588972 1.02816,2.710599 0,1.121628 -0.2804,2.056317 -1.02816,2.7106"
     id="path60"
     inkscape:connector-curvature="0"
     style="fill:#450085;fill-opacity:1;stroke-width:0.93468952" /><path
     class="st0"
     d="m 392.56959,56.735653 c -0.74775,-0.09347 -1.58897,-0.186938 -2.24325,-0.186938 -5.32773,0 -7.94486,2.804069 -7.94486,8.692613 v 3.55182 h -3.64529 v 5.982013 h 3.64529 v 18.506852 h 6.72976 V 74.681692 h 5.70161 v -5.982013 h -5.70161 v -3.271413 c 0,-0.841221 0.28041,-1.588972 0.93469,-2.149786 0.65429,-0.560814 1.40204,-0.841221 2.33673,-0.841221 0.93469,0 1.77591,0.186938 2.43019,0.467345 v -5.608137 l -0.46735,-0.186938 c -0.37387,-0.09347 -0.93469,-0.186938 -1.77591,-0.373876"
     id="path62"
     inkscape:connector-curvature="0"
     style="fill:#450085;fill-opacity:1;stroke-width:0.93468952" /><path
     class="st0"
     d="m 411.63726,56.735653 c -0.74775,-0.09347 -1.58897,-0.186938 -2.24325,-0.186938 -5.32773,0 -7.94487,2.804069 -7.94487,8.692613 v 3.55182 h -3.64528 v 5.982013 h 3.64528 v 18.506852 h 6.72977 V 74.681692 h 5.7016 v -5.982013 h -5.7016 v -3.271413 c 0,-0.841221 0.28041,-1.588972 0.93469,-2.149786 0.65428,-0.560814 1.40203,-0.841221 2.33672,-0.841221 0.93469,0 1.77591,0.186938 2.43019,0.467345 v -5.608137 l -0.46734,-0.186938 c -0.46734,-0.09347 -1.02816,-0.186938 -1.77591,-0.373876"
     id="path64"
     inkscape:connector-curvature="0"
     style="fill:#450085;fill-opacity:1;stroke-width:0.93468952" /><path
     class="st0"
     d="m 430.42452,67.484583 c -3.55182,0 -6.72977,1.308565 -9.25343,3.832227 -2.52366,2.523661 -3.83222,5.701606 -3.83222,9.253426 0,3.55182 1.30856,6.729764 3.92569,9.253426 2.61713,2.523662 5.79508,3.832227 9.44037,3.832227 1.30856,0 2.61713,-0.186938 3.83222,-0.467345 1.2151,-0.280407 2.24326,-0.654283 2.99101,-1.028158 0.74775,-0.373876 1.4955,-0.841221 2.14979,-1.308566 0.74775,-0.560813 1.12162,-0.84122 1.30856,-1.028158 l 0.37388,-0.373876 -3.45835,-4.393041 -0.65429,0.654283 c -0.46734,0.560814 -1.21509,1.028159 -2.43019,1.588972 -1.12163,0.560814 -2.43019,0.747752 -3.73876,0.747752 -1.86938,0 -3.45835,-0.467345 -4.67345,-1.495503 -1.21509,-0.93469 -1.96284,-2.149786 -2.24325,-3.645289 v -0.186938 h 18.50685 l 0.28041,-2.7106 c 0,-3.55182 -1.2151,-6.636295 -3.55182,-8.973019 -2.43019,-2.336724 -5.4212,-3.55182 -8.97302,-3.55182 m -6.26242,10.65546 0.0935,-0.186938 c 0.46734,-1.402034 1.21509,-2.617131 2.24325,-3.458351 1.02816,-0.841221 2.33673,-1.308565 3.9257,-1.308565 1.4955,0 2.80407,0.467344 3.9257,1.402034 1.02815,0.934689 1.68244,2.056317 1.96284,3.458351 v 0.186938 H 424.1621 Z"
     id="path66"
     inkscape:connector-curvature="0"
     style="fill:#450085;fill-opacity:1;stroke-width:0.93468952" /><rect
     x="448.74445"
     y="57.01606"
     class="st0"
     width="6.7297645"
     height="36.172485"
     id="rect68"
     style="fill:#450085;fill-opacity:1;stroke-width:0.93468952" /></g>
</svg>