<?xml version="1.0" encoding="UTF-8" standalone="no"?>
<svg
   xmlns:dc="http://purl.org/dc/elements/1.1/"
   xmlns:cc="http://creativecommons.org/ns#"
   xmlns:rdf="http://www.w3.org/1999/02/22-rdf-syntax-ns#"
   xmlns:svg="http://www.w3.org/2000/svg"
   xmlns="http://www.w3.org/2000/svg"
   xmlns:xlink="http://www.w3.org/1999/xlink"
   xmlns:sodipodi="http://sodipodi.sourceforge.net/DTD/sodipodi-0.dtd"
   xmlns:inkscape="http://www.inkscape.org/namespaces/inkscape"
   enable-background="new 0 0 512 512"
   id="Layer_1"
   version="1.1"
   viewBox="0 0 512 512"
   xml:space="preserve"
   inkscape:version="0.91 r13725"
   sodipodi:docname="privacy.svg"
   inkscape:export-filename="/home/gpetit/Documents/Codes/NoisePlanet/assets/img/privacy_policy/privacy.png"
   inkscape:export-xdpi="14.06"
   inkscape:export-ydpi="14.06"><metadata
     id="metadata29"><rdf:RDF><cc:Work
         rdf:about=""><dc:format>image/svg+xml</dc:format><dc:type
           rdf:resource="http://purl.org/dc/dcmitype/StillImage" /><dc:title></dc:title></cc:Work></rdf:RDF></metadata><defs
     id="defs27"><linearGradient
       gradientUnits="userSpaceOnUse"
       id="SVGID_1_"
       x1="3.8000001e-06"
       x2="512"
       y1="256"
       y2="256"
       xlink:href="#linearGradient4985"><stop
         offset="0"
         style="stop-color:#33B49D"
         id="stop8" /><stop
         offset="1"
         style="stop-color:#00A185"
         id="stop10" /></linearGradient><linearGradient
       gradientUnits="userSpaceOnUse"
       id="SVGID_2_"
       x1="42.666668"
       x2="469.33334"
       y1="256.00052"
       y2="256.00052"
       xlink:href="#linearGradient4985"><stop
         offset="0"
         style="stop-color:#00A185"
         id="stop15" /><stop
         offset="1"
         style="stop-color:#33B49D"
         id="stop17" /></linearGradient><linearGradient
       id="linearGradient4985"><stop
         id="stop4987"
         offset="0"
         style="stop-color:#1472c7;stop-opacity:1;" /><stop
         id="stop4989"
         offset="1"
         style="stop-color:#3db3ee;stop-opacity:1;" /></linearGradient><linearGradient
       inkscape:collect="always"
       xlink:href="#linearGradient4985"
       id="linearGradient4238"
       x1="42.666672"
       y1="256.00052"
       x2="469.33334"
       y2="256.00052"
       gradientUnits="userSpaceOnUse" /><linearGradient
       inkscape:collect="always"
       xlink:href="#linearGradient4985"
       id="linearGradient4246"
       x1="0"
       y1="256"
       x2="512"
       y2="256"
       gradientUnits="userSpaceOnUse"
       gradientTransform="translate(-605.70251,-162.29748)" /></defs><sodipodi:namedview
     pagecolor="#ffffff"
     bordercolor="#666666"
     borderopacity="1"
     objecttolerance="10"
     gridtolerance="10"
     guidetolerance="10"
     inkscape:pageopacity="0"
     inkscape:pageshadow="2"
     inkscape:window-width="1920"
     inkscape:window-height="1123"
     id="namedview25"
     showgrid="false"
     inkscape:zoom="0.4609375"
     inkscape:cx="444.86801"
     inkscape:cy="186.10731"
     inkscape:window-x="0"
     inkscape:window-y="24"
     inkscape:window-maximized="1"
     inkscape:current-layer="Layer_1" /><circle
     cx="-349.70251"
     cy="93.702507"
     r="256"
     id="circle12"
     style="fill:url(#linearGradient4246);fill-opacity:1"
     transform="matrix(-0.5,-0.8660254,0.8660254,-0.5,0,0)" /><path
     d="M 256,469.33386 C 138.36906,469.33386 42.666672,373.63199 42.666672,256.00052 42.666672,138.3696 138.36906,42.667206 256,42.667206 c 117.63626,0 213.33334,95.702404 213.33334,213.333314 0,117.63147 -95.69708,213.33334 -213.33334,213.33334 z"
     id="path19"
     style="fill:url(#linearGradient4238);fill-opacity:1.0"
     inkscape:connector-curvature="0" /><path
     style="opacity:0.3"
     inkscape:connector-curvature="0"
     id="path21"
     d="m 346.0256,257.02505 -17.11041,0 0,-48.10984 C 328.91519,173.12 299.7952,144 263.99841,144 c -35.79254,0 -64.91255,29.12 -64.91255,64.91521 l 0,48.10984 -17.11146,0 c -8.11519,0 -14.69333,6.57868 -14.69333,14.69388 l 0,97.58719 c 0,8.11575 6.57814,14.69388 14.69333,14.69388 l 164.0512,0 c 8.11466,0 14.69397,-6.57813 14.69397,-14.69388 l 0,-97.58719 c 0,-8.1152 -6.57931,-14.69388 -14.69397,-14.69388 z M 208.88214,208.91521 c 0,-30.39255 24.72426,-55.11895 55.11627,-55.11895 30.39202,0 55.12119,24.7264 55.12119,55.11895 l 0,48.10984 -110.23746,0 0,-48.10984 z m 71.78186,143.3184 -33.328,0 6.74667,-33.45495 c -4.07242,-3.03733 -6.74667,-7.85013 -6.74667,-13.32267 0,-9.20318 7.4608,-16.66507 16.664,-16.66507 9.20267,0 16.664,7.46189 16.664,16.66507 0,5.47254 -2.67361,10.28534 -6.74774,13.32267 l 6.74774,33.45495 z" /><path
     style="fill:#ffffff"
     inkscape:connector-curvature="0"
     id="path23"
     d="m 338.0256,249.02507 -17.11041,0 0,-48.10986 C 320.91519,165.12 291.7952,136 255.9984,136 c -35.79253,0 -64.91254,29.12 -64.91254,64.91521 l 0,48.10986 -17.11146,0 c -8.11519,0 -14.69333,6.57866 -14.69333,14.69386 l 0,97.58719 c 0,8.11575 6.57814,14.69388 14.69333,14.69388 l 164.0512,0 c 8.11466,0 14.69397,-6.57813 14.69397,-14.69388 l 0,-97.58719 c 0,-8.1152 -6.57931,-14.69386 -14.69397,-14.69386 z M 200.88214,200.91521 c 0,-30.39255 24.72426,-55.11895 55.11626,-55.11895 30.392,0 55.1212,24.7264 55.1212,55.11895 l 0,48.10986 -110.23746,0 0,-48.10986 z m 71.78186,143.3184 -33.328,0 6.74667,-33.45495 c -4.07242,-3.03733 -6.74667,-7.85013 -6.74667,-13.32267 0,-9.20318 7.4608,-16.66507 16.664,-16.66507 9.20267,0 16.664,7.46189 16.664,16.66507 0,5.47254 -2.67361,10.28534 -6.74774,13.32267 l 6.74774,33.45495 z" /></svg>